<svg xmlns="http://www.w3.org/2000/svg" width="1000" height="1000" viewBox="0 0 1000 1000"><path fill-rule="evenodd" clip-rule="evenodd" fill="#1F1B17" d="M990 616.876S834.86 793.506 491.22 790.23C149.953 786.97 20.545 636.543 20.545 636.543L10 573.763V559.02c0-28.21 23.196-51.105 52.7-53.64v-.477s.335.16.902.406c1.47-.106 2.854-.407 4.36-.407 18.43 0 34.643 8.168 45.255 20.68 24.206 9.214 55.995 20.43 93.03 31.47.442-58.37 3.97-114.275 3.97-150.55 0-108.674 94.358-196.778 210.76-196.778h147.52c116.38 0 210.742 88.104 210.742 196.78 0 36.095 3.508 91.647 3.97 149.715 47.08-13.892 85.693-27.98 110.994-37.885 8.56-6.965 19.262-11.52 31.138-12.812.85-.372 1.435-.62 1.435-.62v.48c1.754-.143 3.455-.48 5.263-.48 32 0 57.96 24.224 57.96 54.116v57.856zm-759.864-52.948c75.326 20.91 168.07 39.356 261.085 39.356 94.022 0 188.22-18.446 264.88-39.356H230.135zm696.64 48.713v.48s-218.38 98.396-435.556 98.396c-214.854 0-428.52-98.396-428.52-98.396v-.48c-1.24-.123-2.392-.46-3.616-.638 69.408 46.868 212.764 120.692 432.137 125.28 220.932 4.624 374.527-75.078 448.473-124.873-2.535.318-5.03.71-7.653.71-1.81 0-3.51-.338-5.264-.48z"/></svg>