<?xml version="1.0" encoding="utf-8"?>
<!-- Generator: Adobe Illustrator 16.0.0, SVG Export Plug-In . SVG Version: 6.00 Build 0)  -->
<!DOCTYPE svg PUBLIC "-//W3C//DTD SVG 1.1//EN" "http://www.w3.org/Graphics/SVG/1.1/DTD/svg11.dtd">
<svg version="1.1" id="Layer_1" xmlns="http://www.w3.org/2000/svg" xmlns:xlink="http://www.w3.org/1999/xlink" x="0px" y="0px"
	 width="1000px" height="250px" viewBox="0 0 1000 250" enable-background="new 0 0 1000 250" xml:space="preserve">
<path d="M985.659,109.255c-6.334-19.176-22.688-35.08-44.871-43.629c-30.113-11.604-65.585-1.891-80.792,22.102
	c-5.363,8.463-6.633,18.215-3.582,27.459c3.512,10.627,12.433,19.385,24.484,24.033c16.59,6.4,36.255,0.861,44.768-12.602
	c3.384-5.35,4.177-11.537,2.227-17.422c-2.156-6.518-7.505-11.842-14.682-14.605c-4.937-1.91-10.506,0.557-12.409,5.506
	c-1.907,4.947,0.559,10.504,5.509,12.41c2.076,0.801,3.103,1.967,3.356,2.723c0.065,0.199,0.164,0.502-0.23,1.125
	c-3.6,5.699-13.716,8-21.629,4.949c-6.666-2.57-11.461-6.994-13.163-12.139c-1.232-3.736-0.688-7.596,1.57-11.16
	c10.126-15.984,36.541-22.611,57.664-14.463c16.796,6.473,29.025,18.043,33.55,31.738c3.586,10.854,2.081,21.961-4.36,32.127
	c-15.835,24.992-48.287,41.201-85.282,42.334c-0.947,0.092-38.481,3.104-91.209-4.371c6.479-11.459,10.126-24.09,10.126-37.393
	c0-51.721-54.34-93.652-121.374-93.652c-29.308,0-69.031,17.904-104.493,38.043c-22.796-19.754-44.158-43.365-62.811-71.768
	L500,8.38l-8.025,12.221c-18.652,28.402-40.014,52.014-62.806,71.768c-35.467-20.139-75.19-38.043-104.498-38.043
	c-67.033,0-121.373,41.932-121.373,93.652c0,13.291,3.638,25.91,10.106,37.361c-52.877,7.488-90.604,4.465-91.775,4.367
	c-36.4-1.098-68.853-17.307-84.697-42.299c-6.44-10.166-7.945-21.273-4.359-32.127c4.523-13.695,16.754-25.266,33.55-31.738
	c21.132-8.148,47.533-1.52,57.663,14.461c2.26,3.57,2.804,7.43,1.57,11.166c-1.697,5.143-6.492,9.564-13.153,12.135
	c-7.895,3.049-18.029,0.742-21.634-4.953c-0.394-0.621-0.296-0.922-0.229-1.121c0.248-0.754,1.279-1.924,3.356-2.723
	c4.945-1.91,7.411-7.467,5.503-12.414c-1.912-4.945-7.468-7.406-12.413-5.502c-7.177,2.768-12.525,8.098-14.677,14.621
	c-1.945,5.883-1.148,12.068,2.24,17.414c8.522,13.449,28.164,18.973,44.763,12.594c12.048-4.646,20.969-13.404,24.475-24.027
	c3.057-9.244,1.781-18.998-3.581-27.465c-15.202-23.992-50.688-33.701-80.793-22.102c-22.182,8.549-38.537,24.453-44.87,43.629
	c-5.372,16.262-3.112,33.459,6.37,48.43c19.211,30.303,57.659,49.926,99.745,51.178c1.06,0.096,45.255,3.695,105.89-6.129
	c22.052,23.525,57.823,38.889,98.324,38.889c53.515,0,141.841-59.625,175.334-83.703c33.489,24.078,121.814,83.703,175.324,83.703
	c40.482,0,76.236-15.35,98.287-38.854c34.529,5.602,63.71,6.857,82.517,6.857c14.157-0.002,22.469-0.693,22.82-0.729
	c42.686-1.287,81.134-20.912,100.335-51.215C988.771,142.714,991.031,125.517,985.659,109.255z M675.329,73.527
	c56.337,0,102.173,33.4,102.173,74.451c0,12.287-4.177,23.861-11.442,34.086c-54.4-10.004-120.567-31.498-179.309-76.645
	C618.838,87.742,652.068,73.527,675.329,73.527z M222.498,147.978c0-41.051,45.837-74.451,102.173-74.451
	c23.232,0,56.469,14.223,88.564,31.9c-58.713,45.115-124.86,66.602-179.312,76.607C226.671,171.816,222.498,160.253,222.498,147.978
	z M324.671,222.421c-29.626,0-56.261-9.289-74.941-24.016c56.337-11.781,122.747-35.496,181.483-82.645
	c18.47,10.984,35.828,22.455,49.741,32.217C439.032,177.392,366.017,222.421,324.671,222.421z M446.631,102.634
	c19.032-17.09,37.047-36.85,53.369-59.766c16.323,22.922,34.356,42.664,53.393,59.756c-22.102,13.449-41.326,26.742-53.388,35.414
	C487.943,129.369,468.724,116.082,446.631,102.634z M675.329,222.421c-41.341,0-114.36-45.035-156.283-74.447
	c13.913-9.768,31.272-21.24,49.741-32.23c58.756,47.17,125.171,70.898,181.461,82.68
	C731.572,213.138,704.941,222.421,675.329,222.421z"/>
</svg>
