<?xml version="1.0" encoding="utf-8"?><!DOCTYPE svg PUBLIC "-//W3C//DTD SVG 1.1//EN" "http://www.w3.org/Graphics/SVG/1.1/DTD/svg11.dtd"><svg xmlns="http://www.w3.org/2000/svg" xmlns:xlink="http://www.w3.org/1999/xlink"><symbol viewBox="0 0 1000 1000" id="dwmEye"><path d="M500 10C229.382 10 10 229.38 10 500c0 270.623 219.382 490 490 490 270.622 0 490-219.377 490-490 0-270.62-219.378-490-490-490zm0 672.576c-100.833 0-182.575-81.743-182.575-182.575 0-100.834 81.742-182.576 182.575-182.576 100.834 0 182.575 81.742 182.575 182.577 0 100.833-81.74 182.576-182.575 182.576zM257.014 500c0 81.19 39.83 153.068 101.005 197.19C243.02 642.906 132.83 544.78 89.703 504.008c40.037-37.85 137.876-125.124 243.706-180.88-47.03 44.31-76.396 107.16-76.396 176.874zm485.972 0c0-70.338-29.898-133.684-77.664-178.054 107.76 55.64 208.57 143.778 249.92 182.06-44.483 41.188-157.793 140.074-274.53 194.113 61.9-44.04 102.274-116.365 102.274-198.12zM500 81.15c201.44 0 369.643 142.212 409.746 331.707C815.962 333.294 645.812 208.685 500 208.685c-148.493 0-319.525 129.11-410.643 208.48C127.807 225.518 297.037 81.15 500 81.15zm0 837.7c-199.472 0-366.358-139.443-408.54-326.166C183.09 672.194 352.65 799.33 500 799.33c144.664 0 313.293-122.657 407.527-202.288C863.75 781.567 697.92 918.85 500 918.85z"/><path d="M500 392.603c-59.313 0-107.397 48.083-107.397 107.398S440.687 607.4 500 607.4c26.372 0 50.51-9.523 69.203-25.298L487.1 500l82.103-82.105c-18.693-15.77-42.83-25.292-69.203-25.292z"/></symbol><symbol viewBox="0 0 1000 1000" id="dwmHat"><path fill-rule="evenodd" clip-rule="evenodd" d="M990 616.876S834.86 793.506 491.22 790.23C149.953 786.97 20.545 636.543 20.545 636.543L10 573.763V559.02c0-28.21 23.196-51.105 52.7-53.64v-.477s.335.16.902.406c1.47-.106 2.854-.407 4.36-.407 18.43 0 34.643 8.168 45.255 20.68 24.206 9.214 55.995 20.43 93.03 31.47.442-58.37 3.97-114.275 3.97-150.55 0-108.674 94.358-196.778 210.76-196.778h147.52c116.38 0 210.742 88.104 210.742 196.78 0 36.095 3.508 91.647 3.97 149.715 47.08-13.892 85.693-27.98 110.994-37.885 8.56-6.965 19.262-11.52 31.138-12.812.85-.372 1.435-.62 1.435-.62v.48c1.754-.143 3.455-.48 5.263-.48 32 0 57.96 24.224 57.96 54.116v57.856zm-759.864-52.948c75.326 20.91 168.07 39.356 261.085 39.356 94.022 0 188.22-18.446 264.88-39.356H230.135zm696.64 48.713v.48s-218.38 98.396-435.556 98.396c-214.854 0-428.52-98.396-428.52-98.396v-.48c-1.24-.123-2.392-.46-3.616-.638 69.408 46.868 212.764 120.692 432.137 125.28 220.932 4.624 374.527-75.078 448.473-124.873-2.535.318-5.03.71-7.653.71-1.81 0-3.51-.338-5.264-.48z"/></symbol><symbol viewBox="0 0 1000 1000" id="facebook"><path d="M705.88 10v153.39h-83.46c-24.79 0-40.595 6.81-48.495 20.342-5.63 8.99-7.9 24.793-7.9 46.226v69.93H708.15l-16.892 154.568H566.024V900H382.12V454.456h-90.27v-154.57h90.27v-92.452c0-94.72 32.695-155.66 96.993-181.632C510.717 13.36 537.78 10 566.023 10H705.88z"/></symbol><symbol viewBox="0 0 1000 1000" id="googlePlus"><path d="M627.58 661.882c-9.15-12.77-20.006-24.902-32.35-35.97-12.132-10.96-24.263-21.708-35.863-31.926l-41.076-32.03c-5.533-4.896-11.705-10.855-18.197-17.772-4.682-4.895-6.917-12.132-6.917-21.922 0-10.11 2.448-18.09 7.556-24.263 6.277-7.77 13.09-15.22 20.22-22.35 12.13-9.15 23.943-18.942 35.33-29.158 11.918-10.748 22.772-22.773 32.244-35.863 9.79-13.41 17.56-28.84 23.198-45.866 5.64-17.027 8.514-37.033 8.514-59.38 0-22.455-3.3-42.887-9.79-60.87-6.386-17.454-14.048-32.99-22.88-46.293-8.727-13.195-18.09-24.582-27.774-33.84-.213-.212-.427-.532-.532-.532h41.82L717.185 100H436.988c-31.606 0-66.192 4.044-102.798 11.812-37.672 7.875-73.854 25.965-107.694 53.527l-.32.32c-25.327 22.24-44.694 47.78-57.464 76.087s-19.155 56.827-19.155 84.814c0 23.307 4.47 46.718 13.302 69.492 8.832 22.88 21.92 43.524 38.735 61.19 16.92 17.665 37.99 32.137 62.786 42.992 24.796 10.854 53.53 16.28 85.24 16.28 6.067 0 12.132-.212 17.985-.53-.32.744-.532 1.49-.85 2.234-2.768 7.77-4.044 17.026-4.044 28.307 0 19.58 4.257 36.396 12.558 49.91 3.512 5.746 7.13 11.385 10.96 16.814-7.448.53-15.43 1.17-23.943 1.913-17.77 1.49-36.926 4.257-56.826 8.087-20.007 3.833-40.546 9.153-60.872 15.645-20.858 6.703-40.545 15.643-58.636 26.604-35.118 20.75-59.806 45.544-73.215 73.64-13.195 27.56-19.9 52.78-19.9 74.917 0 22.985 5.427 45.12 16.07 66.085 10.64 20.856 27.03 39.588 48.844 55.763 21.498 15.856 48.42 28.732 80.24 38.098 31.605 9.363 68.745 14.152 110.567 14.152 49.377 0 93.966-6.49 132.49-19.367 38.522-12.876 71.3-30.01 97.264-50.868 26.18-21.07 46.292-45.44 59.915-72.682 13.62-27.35 20.538-55.444 20.538-83.646 0-20.963-2.874-39.798-8.62-56.187-5.642-15.75-13.197-30.542-22.562-43.523zm-221.772 6.064c10.642-.532 14.26-.638 15.325-.638h14.153c2.128 0 4.576.32 7.342.638 20.22 14.475 38.098 27.67 52.997 39.057 15.11 11.49 27.456 22.773 36.82 33.52 8.94 10.323 15.75 20.965 20.113 31.395 4.257 10.216 6.49 21.815 6.49 34.585 0 32.03-12.45 57.783-38.097 78.643-26.07 21.176-65.34 31.926-116.632 31.926-58.422 0-105.14-12.238-138.767-36.29-32.882-23.518-48.95-52.994-48.95-90.135 0-18.196 3.51-33.31 10.32-45.015 7.024-12.557 15.538-22.986 25.115-31.073 9.684-8.302 19.58-14.793 29.478-19.156 10.322-4.683 18.623-8.087 24.476-10.32 11.492-3.62 23.624-6.706 35.968-9.26 12.238-2.555 24.05-4.47 35.012-5.533 11.385-1.172 20.75-2.023 28.838-2.344zm90.774-309.885c0 9.792-1.49 22.455-4.363 37.566-2.555 13.62-9.365 25.752-20.54 37.033-7.98 7.98-18.303 14.79-30.86 20.218-12.45 5.427-25.115 8.087-37.778 8.087-21.604 0-39.8-6.065-55.55-18.516-16.495-12.984-30.33-29.266-41.29-48.315-11.067-19.368-19.475-40.544-24.795-62.892-5.427-22.454-8.194-42.993-8.194-60.977 0-14.153 1.596-28.2 4.79-41.61 2.98-12.556 8.832-24.37 17.558-35.117 7.876-9.897 18.304-17.985 30.968-23.945 12.664-6.065 25.86-9.045 39.162-9.045 20.858 0 38.63 6.066 54.485 18.517 16.495 12.983 30.542 29.69 41.822 49.484 11.493 20.22 20.22 42.142 25.966 65.234 5.745 23.306 8.62 44.91 8.62 64.277z"/><path d="M785.185 476.822V357.636h-61.722v119.186h-122.38v63.85h122.38v122.38h61.722v-122.38h122.38v-63.85"/></symbol><symbol viewBox="0 0 1000 1000" id="linkedIn"><path d="M260.664 187.75c0 47.794-36.487 86.693-93.48 86.693-54.73 0-91.217-38.748-90.01-86.693-1.207-50.208 35.28-87.75 91.217-87.75 55.787 0 91.067 37.542 92.274 87.75zM81.697 900V342.744h173.237V900H81.697zM393.946 520.504c0-69.505-2.262-128.76-4.522-177.76h150.47l7.992 76.29h3.467c22.767-35.28 79.758-88.955 172.03-88.955 113.986 0 199.473 75.234 199.473 239.275V900H749.62V591.218c0-71.77-25.03-120.77-87.75-120.77-47.796 0-76.292 33.02-87.75 64.983-4.524 10.253-6.786 27.29-6.786 43.272V900H393.946V520.504z"/></symbol><symbol viewBox="0 0 1000 250" id="swirl"><path d="M985.66 109.255c-6.335-19.176-22.69-35.08-44.872-43.63-30.113-11.603-65.585-1.89-80.792 22.103-5.363 8.463-6.633 18.215-3.582 27.46 3.512 10.626 12.433 19.384 24.484 24.032 16.59 6.4 36.255.86 44.768-12.602 3.384-5.35 4.177-11.537 2.227-17.422-2.156-6.518-7.505-11.842-14.682-14.605-4.936-1.91-10.505.558-12.408 5.507-1.907 4.947.56 10.504 5.51 12.41 2.075.8 3.102 1.967 3.355 2.723.065.2.164.502-.23 1.125-3.6 5.7-13.716 8-21.63 4.95-6.665-2.57-11.46-6.995-13.162-12.14-1.232-3.736-.688-7.596 1.57-11.16 10.126-15.984 36.54-22.61 57.664-14.463 16.795 6.473 29.024 18.043 33.55 31.738 3.585 10.854 2.08 21.96-4.36 32.127-15.836 24.992-48.288 41.2-85.283 42.334-.947.093-38.48 3.105-91.21-4.37 6.48-11.46 10.127-24.09 10.127-37.393 0-51.72-54.34-93.652-121.374-93.652-29.308 0-69.03 17.904-104.493 38.043-22.796-19.754-44.158-43.365-62.81-71.768L500 8.38l-8.025 12.22c-18.652 28.403-40.014 52.015-62.806 71.77-35.468-20.14-75.19-38.044-104.5-38.044-67.032 0-121.372 41.932-121.372 93.652 0 13.29 3.638 25.91 10.106 37.36-52.877 7.49-90.604 4.466-91.775 4.368-36.4-1.098-68.854-17.307-84.698-42.3-6.44-10.165-7.945-21.272-4.36-32.126 4.524-13.695 16.755-25.266 33.55-31.738 21.133-8.148 47.534-1.52 57.664 14.46 2.26 3.57 2.804 7.43 1.57 11.167-1.697 5.142-6.492 9.563-13.153 12.134-7.895 3.05-18.03.742-21.634-4.953-.395-.62-.297-.92-.23-1.12.248-.754 1.28-1.924 3.356-2.723 4.945-1.91 7.41-7.467 5.503-12.414-1.913-4.945-7.47-7.406-12.414-5.502-7.177 2.77-12.525 8.1-14.677 14.622-1.946 5.883-1.15 12.068 2.24 17.414 8.52 13.45 28.163 18.973 44.762 12.594 12.048-4.646 20.97-13.404 24.475-24.027 3.057-9.244 1.78-18.998-3.58-27.465-15.203-23.992-50.69-33.7-80.794-22.102-22.182 8.55-38.537 24.453-44.87 43.63-5.372 16.26-3.112 33.458 6.37 48.43 19.21 30.302 57.66 49.925 99.745 51.177 1.06.096 45.255 3.695 105.89-6.13 22.052 23.526 57.823 38.89 98.324 38.89 53.515 0 141.84-59.625 175.334-83.703 33.49 24.078 121.814 83.703 175.324 83.703 40.482 0 76.236-15.35 98.287-38.854 34.53 5.6 63.71 6.856 82.517 6.856 14.157-.002 22.47-.693 22.82-.73 42.686-1.286 81.134-20.91 100.335-51.214 9.48-14.968 11.74-32.165 6.37-48.427zM675.33 73.527c56.336 0 102.172 33.4 102.172 74.45 0 12.288-4.177 23.862-11.442 34.087-54.4-10.004-120.567-31.498-179.31-76.645 32.088-17.678 65.318-31.893 88.58-31.893zm-452.832 74.45c0-41.05 45.837-74.45 102.173-74.45 23.233 0 56.47 14.223 88.565 31.9-58.713 45.115-124.86 66.602-179.312 76.607-7.252-10.218-11.425-21.78-11.425-34.056zm102.173 74.444c-29.625 0-56.26-9.288-74.94-24.015 56.337-11.78 122.747-35.496 181.483-82.645 18.47 10.984 35.828 22.455 49.74 32.217-41.92 29.415-114.936 74.444-156.282 74.444zm121.96-119.786c19.033-17.09 37.048-36.85 53.37-59.766 16.323 22.922 34.356 42.664 53.393 59.756-22.102 13.45-41.326 26.742-53.388 35.414-12.062-8.67-31.28-21.956-53.374-35.404zm228.7 119.787c-41.342 0-114.36-45.034-156.284-74.446 13.913-9.768 31.272-21.24 49.74-32.23 58.757 47.17 125.172 70.898 181.462 82.68-18.676 14.714-45.307 23.997-74.92 23.997z"/></symbol><symbol viewBox="0 0 1000 1000" id="twitter"><path d="M935.1 226.78c26.6-26.6 30.6-65.2 30.6-65.2s-33.3 22.6-65.2 35.9c-32 13.3-55.9 17.3-55.9 17.3s-8-51.9-111.8-62.6c-103.8-10.7-163.7 46.6-197 94.5-33.3 47.9-21.3 143.8-21.3 143.8s-125.1-14.6-222.3-58.6c-97.2-43.9-177.1-146.4-177.1-146.4s-12 16-20 37.3c-8 21.3-12 54.6-2.7 114.5s77.2 103.8 77.2 107.8-21.3 1.3-43.9-4c-22.6-5.3-41.3-17.3-41.3-17.3s4 71.9 41.3 121.1c37.3 49.3 111.8 70.6 111.8 70.6s-22.6 8-39.9 8c-17.3 0-42.6-8-42.6-8s1.3 38.602 51.9 86.5c50.6 47.9 123.8 50.602 123.8 50.602s-24 25.3-98.5 58.6-181 24-181 24 8.7 7.9 25.7 19.1c67.8 38.5 144.5 63 226.4 69.6 44.4 2.4 94.5-.4 150-11.5 38.102-7.6 72.102-16.8 102.8-27.4 170.5-69.8 298.2-222.8 332.5-408.6 9.302-72 5.2-132.4 5.2-132.4s33.3-26.6 51.9-39.9c18.6-13.3 46.6-58.6 46.6-58.6l-102.5 25.3s18.7-17.4 45.3-44z"/></symbol></svg>