<?xml version="1.0" encoding="utf-8"?><!DOCTYPE svg PUBLIC "-//W3C//DTD SVG 1.1//EN" "http://www.w3.org/Graphics/SVG/1.1/DTD/svg11.dtd"><svg xmlns="http://www.w3.org/2000/svg" xmlns:xlink="http://www.w3.org/1999/xlink"><symbol viewBox="0 0 35 10.183" id="beachhouse"><path d="M3.286.216c0-.078-.066-.144-.144-.144H.144C.066.072 0 .138 0 .216S.066.36.144.36h1.343v3.777c0 .084.072.156.156.156.083 0 .156-.072.156-.156V.36H3.14c.078 0 .144-.066.144-.144m4.222 3.92V.205c0-.083-.072-.155-.156-.155-.083 0-.156.07-.156.154v1.81H4.51V.205C4.51.12 4.438.05 4.354.05s-.156.07-.156.154v3.934c0 .084.072.156.156.156s.156-.073.156-.157V2.302h2.686v1.835c0 .084.072.156.156.156s.156-.072.156-.156m1.55-.156V2.297h2.283c.08 0 .145-.066.145-.144 0-.078-.066-.144-.144-.144H9.058V.36h2.554c.08 0 .145-.066.145-.144S11.69.072 11.61.072H8.9c-.084 0-.156.072-.156.156v3.885c0 .084.072.156.156.156h2.74c.078 0 .144-.067.144-.145 0-.078-.066-.144-.144-.144H9.057zm8.28-.856c0 .527-.456.857-1.175.857H14.64V2.297h1.42c.828 0 1.278.3 1.278.815v.014zM16.025 2.01H14.64V.36h1.415c.672 0 1.05.312 1.05.773v.012c0 .558-.45.864-1.08.864m1.63 1.114v-.012c0-.582-.443-.87-.947-1 .342-.14.714-.427.714-.997v-.012c0-.264-.096-.485-.27-.66-.234-.233-.618-.37-1.09-.37h-1.578c-.084 0-.156.07-.156.155v3.885c0 .084.072.156.156.156h1.667c.907 0 1.506-.444 1.506-1.146m1.303.857V2.297h2.283c.077 0 .144-.066.144-.144 0-.078-.065-.144-.144-.144H18.96V.36h2.553c.078 0 .144-.066.144-.144s-.065-.144-.144-.144h-2.71c-.084 0-.156.072-.156.156v3.885c0 .084.072.156.156.156h2.74c.078 0 .144-.067.144-.145 0-.078-.065-.144-.144-.144H18.96zm6.603-1.168H23.35L24.46.384l1.103 2.428zm.93 1.337c0-.03-.007-.06-.024-.097L24.68.18c-.04-.09-.102-.15-.21-.15h-.012c-.108 0-.168.06-.21.15l-1.793 3.884c-.018.036-.023.072-.023.096 0 .072.066.132.145.132.07 0 .118-.042.148-.114l.49-1.085h2.478l.492 1.08c.03.065.084.12.155.12.085 0 .15-.066.15-.144m.853-1.98v-.01c0-1.057.762-1.878 1.77-1.878.587 0 .988.228 1.336.546.024.024.066.042.108.042.084 0 .162-.072.162-.156 0-.054-.03-.096-.06-.126C30.254.24 29.816 0 29.122 0c-1.213 0-2.1.983-2.1 2.17v.012c0 1.205.887 2.158 2.086 2.158.702 0 1.163-.258 1.59-.653.022-.024.048-.06.048-.108 0-.08-.072-.15-.15-.15-.05 0-.084.023-.108.047-.396.378-.798.582-1.366.582-1.003 0-1.776-.828-1.776-1.89M35 4.137V.204c0-.083-.072-.155-.156-.155s-.155.07-.155.154v1.81H32V.205c0-.083-.072-.155-.156-.155-.083 0-.154.07-.154.154v3.934c0 .084.07.156.154.156.084 0 .156-.072.156-.156V2.302h2.687v1.835c0 .084.07.156.154.156S35 4.22 35 4.137M23.5 8.012v.013c0 1.205.887 2.158 2.086 2.158.7 0 1.162-.258 1.588-.654.024-.024.05-.062.05-.108 0-.078-.073-.15-.15-.15-.05 0-.085.023-.108.048-.396.378-.798.582-1.367.582-1.003 0-1.776-.827-1.776-1.89V8c0-1.055.762-1.876 1.77-1.876.588 0 .988.228 1.337.546.025.023.066.04.11.04.082 0 .16-.07.16-.154 0-.054-.03-.097-.06-.126-.408-.348-.846-.588-1.54-.588-1.213 0-2.1.983-2.1 2.17M3.94 9.98V6.044c0-.083-.072-.155-.156-.155s-.156.072-.156.155v1.81H.944v-1.81c0-.083-.072-.155-.156-.155s-.156.07-.156.155V9.98c0 .082.072.154.156.154s.156-.072.156-.155V8.143H3.63V9.98c0 .082.072.154.156.154s.156-.072.156-.155M8.89 8.023c0 1.038-.744 1.876-1.78 1.876-1.04 0-1.794-.85-1.794-1.89V8c0-1.037.744-1.877 1.78-1.877 1.04 0 1.794.852 1.794 1.89v.01zM9.214 8c0-1.145-.833-2.158-2.104-2.158-1.27 0-2.117 1.025-2.117 2.17v.014c0 1.145.833 2.158 2.104 2.158s2.117-1.025 2.117-2.17V8zm4.358.33V6.045c0-.083-.072-.155-.156-.155s-.156.072-.156.155v2.32c0 1.014-.545 1.53-1.396 1.53-.888 0-1.42-.57-1.42-1.56v-2.29c0-.084-.073-.156-.157-.156s-.157.072-.157.155v2.32c0 1.175.713 1.812 1.72 1.812 1.02 0 1.722-.642 1.722-1.847m3.982.695v-.012c0-.61-.407-.96-1.38-1.157-.994-.204-1.222-.474-1.222-.917v-.013c0-.438.408-.792 1.025-.792.426 0 .792.114 1.157.396.03.024.066.037.102.037.084 0 .156-.072.156-.155 0-.06-.036-.103-.066-.127-.384-.287-.773-.432-1.337-.432-.78 0-1.35.48-1.35 1.104v.012c0 .635.408.977 1.415 1.18.953.192 1.187.45 1.187.894v.013c0 .48-.432.833-1.06.833-.577 0-.997-.168-1.416-.545-.024-.02-.06-.037-.102-.037-.084 0-.156.072-.156.156 0 .055.03.096.06.12.474.39.965.587 1.595.587.81 0 1.39-.467 1.39-1.145m1.328.798V8.138h2.285c.078 0 .145-.066.145-.145s-.066-.143-.145-.143H18.88V6.2h2.556c.078 0 .144-.064.144-.143 0-.077-.065-.144-.144-.144h-2.71c-.085 0-.156.072-.156.155v3.886c0 .084.07.156.155.156h2.74c.078 0 .145-.066.145-.145s-.066-.145-.145-.145l-2.584.003zM29.63 8.642c.005-.05-.037-.09-.094-.096-.05-.004-.09.03-.108.06-.082.126-.15.175-.273.16-.192-.02-.486-.255-.7-.278-.204-.02-.35.05-.485.324-.008.014-.017.043-.018.06-.006.048.036.087.092.093.057.006.09-.03.11-.06.08-.125.15-.173.272-.16.19.02.486.257.7.278.204.02.348-.048.485-.322.01-.015.017-.043.02-.058M27.97 6.96c0-.492.35-.865.81-.865.467 0 .83.388.83.882v.016c0 .493-.35.866-.812.866-.465 0-.83-.39-.83-.883V6.96zm-.286.017v.016c0 .628.482 1.12 1.1 1.12.623 0 1.113-.5 1.113-1.136V6.96c0-.627-.482-1.12-1.1-1.12-.624 0-1.113.5-1.113 1.137"/></symbol><symbol viewBox="0 0 1000 1000" id="dwmEye"><path d="M500 10C229.382 10 10 229.38 10 500c0 270.623 219.382 490 490 490 270.622 0 490-219.377 490-490 0-270.62-219.378-490-490-490zm0 672.576c-100.833 0-182.575-81.743-182.575-182.575 0-100.834 81.742-182.576 182.575-182.576 100.834 0 182.575 81.742 182.575 182.577 0 100.833-81.74 182.576-182.575 182.576zM257.014 500c0 81.19 39.83 153.068 101.005 197.19C243.02 642.906 132.83 544.78 89.703 504.008c40.037-37.85 137.876-125.124 243.706-180.88-47.03 44.31-76.396 107.16-76.396 176.874zm485.972 0c0-70.338-29.898-133.684-77.664-178.054 107.76 55.64 208.57 143.778 249.92 182.06-44.483 41.188-157.793 140.074-274.53 194.113 61.9-44.04 102.274-116.365 102.274-198.12zM500 81.15c201.44 0 369.643 142.212 409.746 331.707C815.962 333.294 645.812 208.685 500 208.685c-148.493 0-319.525 129.11-410.643 208.48C127.807 225.518 297.037 81.15 500 81.15zm0 837.7c-199.472 0-366.358-139.443-408.54-326.166C183.09 672.194 352.65 799.33 500 799.33c144.664 0 313.293-122.657 407.527-202.288C863.75 781.567 697.92 918.85 500 918.85z"/><path d="M500 392.603c-59.313 0-107.397 48.083-107.397 107.398S440.687 607.4 500 607.4c26.372 0 50.51-9.523 69.203-25.298L487.1 500l82.103-82.105c-18.693-15.77-42.83-25.292-69.203-25.292z"/></symbol><symbol viewBox="0 0 1000 1000" id="dwmHat"><path fill-rule="evenodd" clip-rule="evenodd" d="M990 616.876S834.86 793.506 491.22 790.23C149.953 786.97 20.545 636.543 20.545 636.543L10 573.763V559.02c0-28.21 23.196-51.105 52.7-53.64v-.477s.335.16.902.406c1.47-.106 2.854-.407 4.36-.407 18.43 0 34.643 8.168 45.255 20.68 24.206 9.214 55.995 20.43 93.03 31.47.442-58.37 3.97-114.275 3.97-150.55 0-108.674 94.358-196.778 210.76-196.778h147.52c116.38 0 210.742 88.104 210.742 196.78 0 36.095 3.508 91.647 3.97 149.715 47.08-13.892 85.693-27.98 110.994-37.885 8.56-6.965 19.262-11.52 31.138-12.812.85-.372 1.435-.62 1.435-.62v.48c1.754-.143 3.455-.48 5.263-.48 32 0 57.96 24.224 57.96 54.116v57.856zm-759.864-52.948c75.326 20.91 168.07 39.356 261.085 39.356 94.022 0 188.22-18.446 264.88-39.356H230.135zm696.64 48.713v.48s-218.38 98.396-435.556 98.396c-214.854 0-428.52-98.396-428.52-98.396v-.48c-1.24-.123-2.392-.46-3.616-.638 69.408 46.868 212.764 120.692 432.137 125.28 220.932 4.624 374.527-75.078 448.473-124.873-2.535.318-5.03.71-7.653.71-1.81 0-3.51-.338-5.264-.48z"/></symbol><symbol viewBox="0 0 1000 1000" id="facebook"><path d="M705.88 10v153.39h-83.46c-24.79 0-40.595 6.81-48.495 20.342-5.63 8.99-7.9 24.793-7.9 46.226v69.93H708.15l-16.892 154.568H566.024V900H382.12V454.456h-90.27v-154.57h90.27v-92.452c0-94.72 32.695-155.66 96.993-181.632C510.717 13.36 537.78 10 566.023 10H705.88z"/></symbol><symbol viewBox="0 0 1000 1000" id="googlePlus"><path d="M627.58 661.882c-9.15-12.77-20.006-24.902-32.35-35.97-12.132-10.96-24.263-21.708-35.863-31.926l-41.076-32.03c-5.533-4.896-11.705-10.855-18.197-17.772-4.682-4.895-6.917-12.132-6.917-21.922 0-10.11 2.448-18.09 7.556-24.263 6.277-7.77 13.09-15.22 20.22-22.35 12.13-9.15 23.943-18.942 35.33-29.158 11.918-10.748 22.772-22.773 32.244-35.863 9.79-13.41 17.56-28.84 23.198-45.866 5.64-17.027 8.514-37.033 8.514-59.38 0-22.455-3.3-42.887-9.79-60.87-6.386-17.454-14.048-32.99-22.88-46.293-8.727-13.195-18.09-24.582-27.774-33.84-.213-.212-.427-.532-.532-.532h41.82L717.185 100H436.988c-31.606 0-66.192 4.044-102.798 11.812-37.672 7.875-73.854 25.965-107.694 53.527l-.32.32c-25.327 22.24-44.694 47.78-57.464 76.087s-19.155 56.827-19.155 84.814c0 23.307 4.47 46.718 13.302 69.492 8.832 22.88 21.92 43.524 38.735 61.19 16.92 17.665 37.99 32.137 62.786 42.992 24.796 10.854 53.53 16.28 85.24 16.28 6.067 0 12.132-.212 17.985-.53-.32.744-.532 1.49-.85 2.234-2.768 7.77-4.044 17.026-4.044 28.307 0 19.58 4.257 36.396 12.558 49.91 3.512 5.746 7.13 11.385 10.96 16.814-7.448.53-15.43 1.17-23.943 1.913-17.77 1.49-36.926 4.257-56.826 8.087-20.007 3.833-40.546 9.153-60.872 15.645-20.858 6.703-40.545 15.643-58.636 26.604-35.118 20.75-59.806 45.544-73.215 73.64-13.195 27.56-19.9 52.78-19.9 74.917 0 22.985 5.427 45.12 16.07 66.085 10.64 20.856 27.03 39.588 48.844 55.763 21.498 15.856 48.42 28.732 80.24 38.098 31.605 9.363 68.745 14.152 110.567 14.152 49.377 0 93.966-6.49 132.49-19.367 38.522-12.876 71.3-30.01 97.264-50.868 26.18-21.07 46.292-45.44 59.915-72.682 13.62-27.35 20.538-55.444 20.538-83.646 0-20.963-2.874-39.798-8.62-56.187-5.642-15.75-13.197-30.542-22.562-43.523zm-221.772 6.064c10.642-.532 14.26-.638 15.325-.638h14.153c2.128 0 4.576.32 7.342.638 20.22 14.475 38.098 27.67 52.997 39.057 15.11 11.49 27.456 22.773 36.82 33.52 8.94 10.323 15.75 20.965 20.113 31.395 4.257 10.216 6.49 21.815 6.49 34.585 0 32.03-12.45 57.783-38.097 78.643-26.07 21.176-65.34 31.926-116.632 31.926-58.422 0-105.14-12.238-138.767-36.29-32.882-23.518-48.95-52.994-48.95-90.135 0-18.196 3.51-33.31 10.32-45.015 7.024-12.557 15.538-22.986 25.115-31.073 9.684-8.302 19.58-14.793 29.478-19.156 10.322-4.683 18.623-8.087 24.476-10.32 11.492-3.62 23.624-6.706 35.968-9.26 12.238-2.555 24.05-4.47 35.012-5.533 11.385-1.172 20.75-2.023 28.838-2.344zm90.774-309.885c0 9.792-1.49 22.455-4.363 37.566-2.555 13.62-9.365 25.752-20.54 37.033-7.98 7.98-18.303 14.79-30.86 20.218-12.45 5.427-25.115 8.087-37.778 8.087-21.604 0-39.8-6.065-55.55-18.516-16.495-12.984-30.33-29.266-41.29-48.315-11.067-19.368-19.475-40.544-24.795-62.892-5.427-22.454-8.194-42.993-8.194-60.977 0-14.153 1.596-28.2 4.79-41.61 2.98-12.556 8.832-24.37 17.558-35.117 7.876-9.897 18.304-17.985 30.968-23.945 12.664-6.065 25.86-9.045 39.162-9.045 20.858 0 38.63 6.066 54.485 18.517 16.495 12.983 30.542 29.69 41.822 49.484 11.493 20.22 20.22 42.142 25.966 65.234 5.745 23.306 8.62 44.91 8.62 64.277z"/><path d="M785.185 476.822V357.636h-61.722v119.186h-122.38v63.85h122.38v122.38h61.722v-122.38h122.38v-63.85"/></symbol><symbol viewBox="0 0 1000 1000" id="linkedIn"><path d="M260.664 187.75c0 47.794-36.487 86.693-93.48 86.693-54.73 0-91.217-38.748-90.01-86.693-1.207-50.208 35.28-87.75 91.217-87.75 55.787 0 91.067 37.542 92.274 87.75zM81.697 900V342.744h173.237V900H81.697zM393.946 520.504c0-69.505-2.262-128.76-4.522-177.76h150.47l7.992 76.29h3.467c22.767-35.28 79.758-88.955 172.03-88.955 113.986 0 199.473 75.234 199.473 239.275V900H749.62V591.218c0-71.77-25.03-120.77-87.75-120.77-47.796 0-76.292 33.02-87.75 64.983-4.524 10.253-6.786 27.29-6.786 43.272V900H393.946V520.504z"/></symbol><symbol viewBox="-132.094 -0.834 251.773 200" id="realfoodbox"><path d="M60.08 73.058h-4.014l.114 31.7h3.9c9.306 0 13.55-5.7 13.61-15.82.002-10.123-4.245-15.88-13.61-15.88zM-30.236 72.473c-6.456 0-11.4 3.84-11.4 12.448 0 8.61 4.945 12.45 11.4 12.45 6.456 0 11.4-3.838 11.4-12.45 0-8.606-4.944-12.447-11.4-12.447zM15.82 72.473c-6.455 0-11.398 3.84-11.398 12.448 0 8.61 4.944 12.45 11.4 12.45 6.455 0 11.4-3.838 11.4-12.45 0-8.606-4.945-12.447-11.4-12.447zM16.684 43.42c-4.968 0-8.398 2.72-8.398 7.038 0 4.14 2.365 7.272 6.623 7.272 4.26 0 7.395-3.312 8.636-6.327-.06-.65-.12-1.3-.12-7.984h-6.742zM-67.582 138.235c7.52 0 10.528-2.404 10.528-8.648 0-3.985-2.255-9.4-9.926-9.4l-6.693.148.076 17.9h6.015zM-8.545 119.735c-8.35 0-14.742 4.965-14.742 16.096 0 11.133 6.394 16.095 14.742 16.095s14.74-4.962 14.74-16.094c0-11.13-6.392-16.095-14.74-16.095zM-64.95 143.878h-8.648l.075 17.524h8.875c8.875 0 11.73-4.438 11.73-7.973 0-7.144-3.31-9.552-12.032-9.552zM-24.882 24.022c-6.092 0-10.467 4.79-11 13.72l21.055-.175c0-6.803-3.667-13.545-10.055-13.545z"/><path d="M118.805 110.832l-.017-.03c-1.066-.213-1.123-.586-.265-.998.635-.302.772-.9.312-1.563-.384-.57-.667-1.156-1.316-1.665-.51-.396-.542-.847.037-1.29.504-.394.54-.873.44-1.34-.22-1.016-.562-2.017-.28-3.056.125-.457-.015-.97-.158-1.432-.303-.95.065-1.834.474-2.73.075-.17.04-.36.048-.547.02-.507-.042-1.017.528-1.473.275-.22.344-.53.064-.756-.68-.546-.562-1.206-.91-1.798-.087-.156-.128-.335-.003-.49.8-1.01.634-2.13 1.09-3.176.276-.64.312-1.272.328-1.916.003-.302-.02-.585-.252-.872-.264-.335-.06-.69.108-1.02.356-.717.394-1.427.184-2.16-.088-.297.112-.614.12-.926.036-1.162.042-2.32.053-3.485.007-.147-.014-.28-.13-.43-.32-.353-.42-.724.014-1.082.202-.175.21-.375.194-.576-.075-.77-.158-1.563-.098-2.314.087-1.037.016-2.076.11-3.112.026-.285-.027-.56-.313-.81-.21-.184-.196-.37-.048-.565.644-.835.426-1.714.238-2.553-.177-.83.105-1.64.048-2.453-.048-.725.355-1.428-.23-2.174-.343-.44-.07-1.028-.18-1.55-.053-.282-.033-.586-.256-.83-.825-.868-.586-1.827-.827-2.748-.232-.855-.092-1.742-.646-2.577-.518-.787-.254-1.605.03-2.398.433-1.195.576-2.386.337-3.598-.16-.807-.073-1.62-.178-2.43-.15-1.123-.13-2.24-.32-3.372-.197-1.236.044-2.51.197-3.76.138-1.15.467-2.3.604-3.447.12-1.005-.254-2.01-.15-3.02.173-1.733-.445-3.458-.188-5.193.048-.314.09-.63.18-.94.2-.704.36-1.394.02-2.104-.127-.26-.013-.566.06-.838.134-.475.236-.937-.018-1.418-.24-.454.104-.92.138-1.377.095-1.147.09-2.314.227-3.45.123-.997.154-1.998.316-2.995.064-.416-.19-.816-.223-1.194-.088-.84-.852-1.636-.42-2.522.48-.99.157-1.997-.18-2.98-.443-1.333-.272-2.666.008-3.994.144-.683.03-1.36.01-2.038-.024-.707.137-1.4.307-2.1h-249.547c0 .02-.01.043-.01.065.017.57.31 1.136.448 1.7.23.902.064 1.765-.142 2.642-.02.08-.098.17-.076.24.59 1.544-.14 3.093.096 4.632.076.497.17.986.344 1.473.377 1.046.283 2.11.07 3.158-.292 1.482-.554 2.958-.237 4.445.31 1.444.352 2.884.065 4.332-.114.54-.142 1.093.055 1.635.15.396-.184.78-.108 1.18.368 1.888.307 3.79.625 5.685.14.838-.213 1.707-.366 2.56-.027.178-.054.357-.003.54.497 1.927.565 3.838-.166 5.76-.38 1.017.058 2.088-.105 3.127-.166 1.05-.125 2.105-.43 3.157-.253.86.198 1.736.367 2.612.03.183.154.37.046.54-.368.574-.107 1.104.044 1.687.15.58.226 1.238-.17 1.832-.573.858-.678 1.724-.387 2.627.235.733.01 1.48-.037 2.222-.02.25-.108.505.052.738.546.79.283 1.593.114 2.393-.07.303.046.59.206.877.296.546.15 1.105.147 1.668-.01 1.534-.848 3.022-.666 4.578.132 1.13-.02 2.268-.29 3.397-.146.596 0 1.19.245 1.77.094.217.2.452.057.642-.63.827-.048 1.63.104 2.438.066.348.158.687.127 1.036-.018.198-.12.427.006.59.91 1.178.205 2.394.31 3.577.045.567 0 1.124.14 1.686.053.225.09.475-.006.692-.66 1.418-.15 2.836-.017 4.248.04.42-.022.782-.4 1.135-.41.387-.496.786-.306 1.236.266.623.453 1.242.288 1.908-.202.822.112 1.65.254 2.474.066.387.044.743-.237 1.113-.414.54-.458 1.13-.324 1.707.113.5.152.987.007 1.482-.15.513.094 1.03.062 1.533-.058 1.05.385 2.08.395 3.094.018.844-.006 1.716-.124 2.556-.11.812-.35 1.595.04 2.394.037.084.068.175.042.25-.546 1.47-.436 2.954-.517 4.437-.015.314-.023.633.188.93.49.696.29 1.41.066 2.103-.21.63-.26 1.228-.082 1.863.226.806.513 1.624.04 2.44-.027.045-.04.103-.022.145.36 1-.193 2.003.028 3.008.05.235.022.467-.096.688-.12.232-.206.48-.04.685.685.853.23 1.724.163 2.585-.028.4-.045.796.023 1.19.103.638.355 1.256.136 1.924-.185.554.47 1.103.433 1.692-.015.262.094.524.007.79-.368 1.13-.12 2.252.15 3.355.2.794.35 1.59.203 2.363-.17.902.2 1.79.05 2.67-.237 1.41.263 2.823-.27 4.243-.28.778-.225 1.62.04 2.427.064.213.086.43-.018.64-.19.396-.197.793.145 1.16.585.63.11 1.244-.127 1.84-.305.772-.283 1.543-.3 2.315-.01.206.063.4.216.585.286.34.39.677.196 1.056-.17.327-.02.658.237.966.366.433.447.897.07 1.295-.86.908-.664 1.898-.686 2.85-.03 1.136.062 2.274.22 3.413.16 1.2.038 2.444-.157 3.664-.083.513-.022.99.396 1.45.36.39.377.747-.116 1.113-.758.552-.197 1.147-.127 1.73.048.36.12.714-.02 1.076-.083.223-.104.477-.002.69.288.603.256 1.177-.183 1.752-.19.247-.072.482.178.705.4.354.508.735.285 1.14-.217.39-.228.784 0 1.174.438.74.068 1.484-.026 2.213-.094.708.114 1.422-.125 2.117-.02.05.018.104-.01.148-.885 1.678.12 3.33.16 4.992.02.756.186 1.53-.224 2.305-.33.613-.076 1.28-.01 1.92.09.878.23 1.76-.113 2.62-.267.683.558.985 1.234 1.364.555.308 1.15.266 1.773.083.475-.134.953-.12 1.438-.013 1.977.436 4.035.752 6.045 1.12 1.488.275 3.21.275 4.847.19 1.352-.08 2.67.01 3.94.268.542.114 1.037.162 1.61.086.712-.09 1.457-.086 2.172.024 1.046.148 2.115.225 3.182.307.383.03.77.032 1.122-.063 1.854-.49 3.815-.427 5.75-.3 1.49.102 2.88-.138 4.31-.246 1.23-.087 2.425-.345 3.703-.22.273.027.588-.02.853-.07.338-.07.69-.106 1.03-.06 1.69.205 3.375.25 5.062 0 .027 0 .062-.012.088 0 2.203.444 4.443-.176 6.733.126 1.424.193 3.03.28 4.624.2 1.904-.1 3.842.04 5.764.112 1.024.04 2.034.102 3.007-.15.496-.123 1.037-.182 1.546-.106 1.2.17 2.44.062 3.647.19.592.063 1.217.052 1.828-.044.595-.094 1.224-.075 1.827-.032 2.34.17 4.648-.02 6.958-.197.112-.01.24-.032.35-.01 1.61.27 3.285.042 4.913.19.72.06 1.383-.12 2.082-.088 1.972.08 3.957-.03 5.928.09.574.03 1.16.02 1.738-.064.453-.063.923-.067 1.374.04 1.102.264 2.264.226 3.432.26 1.538.043 2.906.424 4.138.953 1.726.75 2.807.586 3.605-.545.217-.3.583-.49 1.163-.526.333-.02.65.014.863.18.222.176.02.316-.163.44-.143.11-.366.218-.145.347.27.15.483-.006.662-.108.806-.446 1.793-.598 2.888-.58.772.02 1.502-.04 2.185-.282.497-.173 1.072-.162 1.604-.038.868.2 1.754.244 2.667.206.312-.014.666-.006.95.057.95.21 1.85.29 2.714-.12.14-.067.397-.1.58-.082 1.96.15 3.87-.194 5.816-.23 1.65-.032 3.272.22 4.88.077 1.548-.14 3.077.04 4.57-.035 1.463-.075 2.848-.033 4.3.03 1.504.054 2.986.268 4.56.176 1.92-.108 3.887.07 5.84.13.934.028 1.866.07 2.754-.163.49-.13 1.03-.193 1.54-.116 1.208.176 2.437.07 3.65.196.592.06 1.217.053 1.823-.043.632-.1 1.29-.075 1.92-.033 2.317.162 4.593-.015 6.872-.196.116-.01.245-.03.353-.01 1.615.256 3.285.05 4.91.185.728.054 1.382-.11 2.085-.084 1.972.062 3.956-.027 5.926.087.577.038 1.152.027 1.74-.056.45-.066.922-.075 1.376.03 1.105.272 2.27.224 3.432.266 1.574.045 2.967.43 4.23.962 1.64.687 2.71.508 3.51-.57.222-.3.594-.483 1.173-.52.37-.02.717.016.93.204.195.168.015.31-.15.45-.114.087-.368.18-.114.282.202.088.386-.027.517-.11.804-.466 1.817-.566 2.9-.566.768.006 1.497-.05 2.186-.276.593-.194 1.253-.143 1.865-.01.7.148 1.413.2 2.158.14.115-.012.25-.034.346-.01 1.948.51 3.678-.237 5.525-.304.93-.038 1.678-.208 2.246-.646.31-.237.75-.418 1.083-.65.446-.31.94-.385 1.683-.34 1.845.118 3.71.234 5.57 0 .66-.086 1.33-.003 1.983-.005 1.14-.007 2.233.08 3.322.23.293.042.668.013.95-.05 1.875-.45 3.81-.337 5.754-.243.903.042 1.812-.04 2.708-.108.65-.052.95-.32.84-.687-.763-2.505-.257-5.01-.02-7.513.075-.772.103-1.555.223-2.33.178-1.1.194-2.208.5-3.306.195-.706-.046-1.45.044-2.178.236-1.82-.603-3.58-.757-5.374-.075-.905.01-1.82.1-2.725.116-1.138.296-2.272.49-3.41.444-2.598-.007-5.196-.076-7.792-.048-1.843-.545-3.684-.738-5.53-.085-.83-.146-1.665-.033-2.48.196-1.338.038-2.68.42-4.016.212-.74.074-1.52-.03-2.275-.116-.95-.096-1.887.18-2.82.348-1.198.44-2.393-.005-3.597-.316-.852-.075-1.738.188-2.566.46-1.454.088-2.865-.14-4.296-.23-1.453-.49-2.896.053-4.34.443-1.184.43-2.397.764-3.584.075-.294.223-.58.323-.866.18-.54 0-1.05-.252-1.567-.54-1.12-.298-2.267-.334-3.41-.026-.743.065-1.486.362-2.22.084-.21.182-.43.706-.413.198.008.302-.064.352-.177.263-.625.772-1.212.706-1.883-.085-.857.416-1.69.48-2.55.033-.455.02-.75-.865-.925zm-247.052 76.95c-.464-.028-.738-.274-.69-.545.04-.197.156-.43.67-.44.45.09.57.318.54.55-.027.17-.106.453-.52.436zm0-42.745c-.49.03-.565-.168-.56-.38.004-.317.168-.65.714-.698.47-.043.504.284.585.497-.057.282-.15.547-.74.58zm2.016-51.898c-.19.153-.382.305-.766.273-.353-.027-.432-.21-.52-.356-.075-.12-.106-.278-.03-.39.197-.282.007-.8.772-.766.67.028.596.495.682.773-.023.18.024.333-.14.466zM48.73 25.086l-5.62.53s.83-5.617.83-5.678l9.64.475 13.188-.475v4.435l-8.635-.057.118 32.47h15.26l1.064-11.712h6.86L81.2 61.458l-27.623-.47-9.64.472c0-.06-.828-5.678-.828-5.678l6.27.65-.65-31.345zM14.083 24.02c-8.755 0-8.34 4.435-8.34 4.435 2.366-.473 4.555.532 4.555 4.14 0 2.72-2.248 4.91-4.97 4.91-2.72 0-4.907-2.19-4.907-5.68 0-5.855 4.2-12.48 15.556-12.48 12.42 0 17.625 6.092 17.388 13.19l-.71 19.166c0 5.087 1.834 5.737 2.955 5.737 2.662 0 2.366-3.785 2.366-6.152l3.49.06c0 6.8-1.892 11.06-8.872 11.06-3.607 0-5.915-1.42-7.982-6.388-2.13 3.135-5.797 6.387-12.065 6.387-7.453 0-12.774-4.67-12.774-10.94 0-7.512 6.504-11.477 14.015-11.477h9.64l.12-6.562c.055-4.735-2.547-9.405-9.465-9.405zm1.74 43.86c11.05 0 20.534 5.18 20.534 17.042 0 11.867-9.483 17.043-20.534 17.043-11.052 0-20.534-5.176-20.534-17.043 0-11.866 9.48-17.043 20.533-17.043zm-40.585-48.532c11.356 0 19.754 7.45 19.754 22.476h-31.05c0 9.167 4.495 15.91 12.303 15.91 7.037 0 12.242-3.73 12.242-9.64l5.027.057c0 8.695-7.157 14.254-17.21 14.254-12.303 0-21.646-7.274-21.646-22.178-.002-15.14 9.932-20.878 20.58-20.878zm-5.474 48.53c11.052 0 20.532 5.18 20.532 17.044 0 11.867-9.48 17.043-20.533 17.043-11.052 0-20.53-5.176-20.53-17.043 0-11.866 9.48-17.043 20.53-17.043zm-55.908-42.795l-5.558.534s.826-5.617.826-5.678l9.642.59 12.538-.59c8.28 0 14.313 3.015 14.313 11.947 0 5.62-3.193 8.694-7.924 10.35 4.197 1.716 6.86 4.732 6.86 9.936 0 4.318 1.006 5.264 2.603 5.264 2.012 0 2.72-.827 2.72-6.09h3.49c0 7.336-2.246 11.18-9.285 11.18-3.727 0-8.457-3.787-8.457-11.83 0-4.614-2.838-6.446-8.34-6.506h-3.963l.06 13.014h5.263v4.258l-9.934-.473-9.643.47c0-.06-.83-5.678-.83-5.678l6.27.65-.65-31.35zm-.158 48.44l-5.525.522s.814-5.525.814-5.584l9.48.466 27.166-.465.233 11.344h-6.75l-1.047-6.747h-15.124l.057 14.773h7.157l.64-3.373h4.826v11.75H-69.2l-.64-3.374h-7.157l.06 12.213 8.375-.116v4.362l-12.97-.465-9.482.47c0-.06-.814-5.587-.814-5.587l6.165.643-.64-30.83zm23.684 93.82l-16.772-.752-12.26.752c0-.075-1.053-7.22-1.053-7.22l7.897.826-.828-39.86-7.068.677s1.054-7.144 1.054-7.22l12.26.753 16.77-.753c10.53 0 17.375 3.835 17.375 15.192 0 5.34-2.785 8.724-7.146 10.83 6.77 2.03 11.283 5.792 11.283 12.71 0 10.454-9.403 14.065-21.51 14.065zm14.41-58.047v-5.003h35.946v5.003H-48.21zm62.902 58.046h-46.48v-6.47h46.48v6.47zm-23.24-9.476c-14.29 0-26.55-6.693-26.55-22.035s12.262-22.035 26.55-22.035c14.292 0 26.55 6.69 26.55 22.036 0 15.343-12.26 22.036-26.55 22.036zm6.396-48.57v-5.003h35.947v5.003H-2.15zM79.9 119.96l-6.916.075L57.94 141.17l14.366 20.757h7.596v5.415l-12.634-.6-12.262.6c0-.075-1.052-7.22-1.052-7.22l5.566.602-8.876-13.086-11.28 14.214 9.25.075v5.415l-12.634-.6-12.26.6c0-.075-1.055-7.22-1.055-7.22l8.198.826 14.667-18.426-15.042-21.51-7.82.75s1.054-7.144 1.054-7.22l12.26.602 12.633-.6v5.413l-6.842.076 10.98 15.946 10.455-15.118-9.252.9s1.052-7.143 1.052-7.22l12.262.603 12.634-.602v5.417zm-20.87-10.664l-7.445-.408-9.48.466c0-.058-.815-5.584-.815-5.584l6.165.64-.64-30.885-5.527.52s.816-5.524.816-5.583l9.48.465 7.447-.406c10.996 0 23.792 4.596 23.792 20.417-.057 15.763-12.796 20.36-23.79 20.36z"/><path d="M-71.95 39.635c5.915 0 8.28-2.01 8.28-7.865 0-3.136-2.9-7.16-8.932-7.16h-4.136l.057 15.024h4.73z"/></symbol><symbol viewBox="0 0 1000 250" id="swirl"><path d="M985.66 109.255c-6.335-19.176-22.69-35.08-44.872-43.63-30.113-11.603-65.585-1.89-80.792 22.103-5.363 8.463-6.633 18.215-3.582 27.46 3.512 10.626 12.433 19.384 24.484 24.032 16.59 6.4 36.255.86 44.768-12.602 3.384-5.35 4.177-11.537 2.227-17.422-2.156-6.518-7.505-11.842-14.682-14.605-4.936-1.91-10.505.558-12.408 5.507-1.907 4.947.56 10.504 5.51 12.41 2.075.8 3.102 1.967 3.355 2.723.065.2.164.502-.23 1.125-3.6 5.7-13.716 8-21.63 4.95-6.665-2.57-11.46-6.995-13.162-12.14-1.232-3.736-.688-7.596 1.57-11.16 10.126-15.984 36.54-22.61 57.664-14.463 16.795 6.473 29.024 18.043 33.55 31.738 3.585 10.854 2.08 21.96-4.36 32.127-15.836 24.992-48.288 41.2-85.283 42.334-.947.093-38.48 3.105-91.21-4.37 6.48-11.46 10.127-24.09 10.127-37.393 0-51.72-54.34-93.652-121.374-93.652-29.308 0-69.03 17.904-104.493 38.043-22.796-19.754-44.158-43.365-62.81-71.768L500 8.38l-8.025 12.22c-18.652 28.403-40.014 52.015-62.806 71.77-35.468-20.14-75.19-38.044-104.5-38.044-67.032 0-121.372 41.932-121.372 93.652 0 13.29 3.638 25.91 10.106 37.36-52.877 7.49-90.604 4.466-91.775 4.368-36.4-1.098-68.854-17.307-84.698-42.3-6.44-10.165-7.945-21.272-4.36-32.126 4.524-13.695 16.755-25.266 33.55-31.738 21.133-8.148 47.534-1.52 57.664 14.46 2.26 3.57 2.804 7.43 1.57 11.167-1.697 5.142-6.492 9.563-13.153 12.134-7.895 3.05-18.03.742-21.634-4.953-.395-.62-.297-.92-.23-1.12.248-.754 1.28-1.924 3.356-2.723 4.945-1.91 7.41-7.467 5.503-12.414-1.913-4.945-7.47-7.406-12.414-5.502-7.177 2.77-12.525 8.1-14.677 14.622-1.946 5.883-1.15 12.068 2.24 17.414 8.52 13.45 28.163 18.973 44.762 12.594 12.048-4.646 20.97-13.404 24.475-24.027 3.057-9.244 1.78-18.998-3.58-27.465-15.203-23.992-50.69-33.7-80.794-22.102-22.182 8.55-38.537 24.453-44.87 43.63-5.372 16.26-3.112 33.458 6.37 48.43 19.21 30.302 57.66 49.925 99.745 51.177 1.06.096 45.255 3.695 105.89-6.13 22.052 23.526 57.823 38.89 98.324 38.89 53.515 0 141.84-59.625 175.334-83.703 33.49 24.078 121.814 83.703 175.324 83.703 40.482 0 76.236-15.35 98.287-38.854 34.53 5.6 63.71 6.856 82.517 6.856 14.157-.002 22.47-.693 22.82-.73 42.686-1.286 81.134-20.91 100.335-51.214 9.48-14.968 11.74-32.165 6.37-48.427zM675.33 73.527c56.336 0 102.172 33.4 102.172 74.45 0 12.288-4.177 23.862-11.442 34.087-54.4-10.004-120.567-31.498-179.31-76.645 32.088-17.678 65.318-31.893 88.58-31.893zm-452.832 74.45c0-41.05 45.837-74.45 102.173-74.45 23.233 0 56.47 14.223 88.565 31.9-58.713 45.115-124.86 66.602-179.312 76.607-7.252-10.218-11.425-21.78-11.425-34.056zm102.173 74.444c-29.625 0-56.26-9.288-74.94-24.015 56.337-11.78 122.747-35.496 181.483-82.645 18.47 10.984 35.828 22.455 49.74 32.217-41.92 29.415-114.936 74.444-156.282 74.444zm121.96-119.786c19.033-17.09 37.048-36.85 53.37-59.766 16.323 22.922 34.356 42.664 53.393 59.756-22.102 13.45-41.326 26.742-53.388 35.414-12.062-8.67-31.28-21.956-53.374-35.404zm228.7 119.787c-41.342 0-114.36-45.034-156.284-74.446 13.913-9.768 31.272-21.24 49.74-32.23 58.757 47.17 125.172 70.898 181.462 82.68-18.676 14.714-45.307 23.997-74.92 23.997z"/></symbol><symbol viewBox="0 0 1000 1000" id="twitter"><path d="M935.1 226.78c26.6-26.6 30.6-65.2 30.6-65.2s-33.3 22.6-65.2 35.9c-32 13.3-55.9 17.3-55.9 17.3s-8-51.9-111.8-62.6c-103.8-10.7-163.7 46.6-197 94.5-33.3 47.9-21.3 143.8-21.3 143.8s-125.1-14.6-222.3-58.6c-97.2-43.9-177.1-146.4-177.1-146.4s-12 16-20 37.3c-8 21.3-12 54.6-2.7 114.5s77.2 103.8 77.2 107.8-21.3 1.3-43.9-4c-22.6-5.3-41.3-17.3-41.3-17.3s4 71.9 41.3 121.1c37.3 49.3 111.8 70.6 111.8 70.6s-22.6 8-39.9 8c-17.3 0-42.6-8-42.6-8s1.3 38.602 51.9 86.5c50.6 47.9 123.8 50.602 123.8 50.602s-24 25.3-98.5 58.6-181 24-181 24 8.7 7.9 25.7 19.1c67.8 38.5 144.5 63 226.4 69.6 44.4 2.4 94.5-.4 150-11.5 38.102-7.6 72.102-16.8 102.8-27.4 170.5-69.8 298.2-222.8 332.5-408.6 9.302-72 5.2-132.4 5.2-132.4s33.3-26.6 51.9-39.9c18.6-13.3 46.6-58.6 46.6-58.6l-102.5 25.3s18.7-17.4 45.3-44z"/></symbol></svg>