<?xml version="1.0" encoding="utf-8"?>
<!-- Generator: Adobe Illustrator 16.0.0, SVG Export Plug-In . SVG Version: 6.00 Build 0)  -->
<!DOCTYPE svg PUBLIC "-//W3C//DTD SVG 1.1//EN" "http://www.w3.org/Graphics/SVG/1.1/DTD/svg11.dtd">
<svg version="1.1" id="Layer_1" xmlns="http://www.w3.org/2000/svg" xmlns:xlink="http://www.w3.org/1999/xlink" x="0px" y="0px"
	 width="35px" height="10.183px" viewBox="0 0 35 10.183" enable-background="new 0 0 35 10.183" xml:space="preserve">
<g>
	<path d="M3.286,0.216c0-0.078-0.066-0.144-0.144-0.144H0.144C0.066,0.072,0,0.138,0,0.216S0.066,0.36,0.144,0.36h1.343v3.777
		c0,0.084,0.072,0.156,0.156,0.156c0.083,0,0.156-0.072,0.156-0.156V0.36h1.343C3.22,0.36,3.286,0.294,3.286,0.216 M7.508,4.137
		V0.204c0-0.083-0.072-0.155-0.156-0.155c-0.083,0-0.156,0.072-0.156,0.155v1.811H4.51V0.204c0-0.083-0.072-0.155-0.156-0.155
		S4.198,0.12,4.198,0.204v3.934c0,0.084,0.072,0.156,0.156,0.156S4.51,4.221,4.51,4.137V2.302h2.686v1.835
		c0,0.084,0.072,0.156,0.156,0.156C7.436,4.293,7.508,4.221,7.508,4.137 M9.057,3.981V2.296h2.284c0.078,0,0.144-0.066,0.144-0.144
		c0-0.078-0.066-0.144-0.144-0.144H9.057V0.36h2.554c0.078,0,0.144-0.066,0.144-0.144s-0.066-0.144-0.144-0.144H8.9
		c-0.084,0-0.156,0.072-0.156,0.156v3.885c0,0.084,0.072,0.156,0.156,0.156h2.74c0.078,0,0.144-0.066,0.144-0.144
		c0-0.078-0.066-0.144-0.144-0.144H9.057z M17.338,3.124c0,0.527-0.456,0.857-1.175,0.857H14.64V2.296h1.421
		c0.827,0,1.277,0.3,1.277,0.815V3.124z M16.025,2.009H14.64V0.36h1.415c0.672,0,1.049,0.312,1.049,0.773v0.012
		C17.104,1.703,16.655,2.009,16.025,2.009 M17.656,3.124V3.112c0-0.582-0.444-0.87-0.948-1.001c0.342-0.138,0.714-0.426,0.714-0.996
		V1.103c0-0.264-0.096-0.485-0.27-0.659c-0.234-0.234-0.618-0.372-1.091-0.372h-1.577c-0.084,0-0.156,0.072-0.156,0.156v3.885
		c0,0.084,0.072,0.156,0.156,0.156h1.667C17.057,4.269,17.656,3.826,17.656,3.124 M18.959,3.981V2.296h2.284
		c0.077,0,0.144-0.066,0.144-0.144c0-0.078-0.065-0.144-0.144-0.144h-2.284V0.36h2.554c0.078,0,0.144-0.066,0.144-0.144
		s-0.065-0.144-0.144-0.144h-2.71c-0.084,0-0.156,0.072-0.156,0.156v3.885c0,0.084,0.072,0.156,0.156,0.156h2.74
		c0.078,0,0.144-0.066,0.144-0.144c0-0.078-0.065-0.144-0.144-0.144H18.959z M25.563,2.812h-2.212l1.109-2.428L25.563,2.812z
		 M26.493,4.149c0-0.03-0.007-0.06-0.024-0.096L24.682,0.18C24.641,0.09,24.58,0.03,24.473,0.03H24.46
		c-0.108,0-0.168,0.06-0.21,0.149l-1.793,3.885c-0.018,0.036-0.023,0.072-0.023,0.096c0,0.072,0.066,0.132,0.145,0.132
		c0.072,0,0.119-0.042,0.149-0.114l0.491-1.085h2.477l0.492,1.079c0.029,0.066,0.084,0.12,0.155,0.12
		C26.428,4.293,26.493,4.227,26.493,4.149 M27.346,2.17V2.159c0-1.056,0.762-1.877,1.77-1.877c0.587,0,0.988,0.228,1.336,0.546
		c0.024,0.024,0.066,0.042,0.108,0.042c0.084,0,0.162-0.072,0.162-0.156c0-0.054-0.03-0.096-0.06-0.126
		C30.254,0.24,29.816,0,29.121,0c-1.212,0-2.1,0.983-2.1,2.17v0.012c0,1.205,0.888,2.158,2.087,2.158
		c0.702,0,1.163-0.258,1.589-0.653c0.023-0.024,0.049-0.06,0.049-0.108c0-0.078-0.072-0.15-0.15-0.15
		c-0.049,0-0.084,0.024-0.108,0.048c-0.396,0.378-0.798,0.582-1.366,0.582C28.119,4.059,27.346,3.232,27.346,2.17 M35,4.137V0.204
		c0-0.083-0.072-0.155-0.156-0.155s-0.155,0.072-0.155,0.155v1.811h-2.687V0.204c0-0.083-0.072-0.155-0.156-0.155
		c-0.083,0-0.154,0.072-0.154,0.155v3.934c0,0.084,0.071,0.156,0.154,0.156c0.084,0,0.156-0.072,0.156-0.156V2.302h2.687v1.835
		c0,0.084,0.071,0.156,0.155,0.156S35,4.221,35,4.137"/>
	<path d="M23.499,8.012v0.013c0,1.205,0.888,2.158,2.087,2.158c0.701,0,1.162-0.258,1.588-0.654
		c0.024-0.023,0.049-0.061,0.049-0.107c0-0.078-0.072-0.15-0.15-0.15c-0.049,0-0.084,0.023-0.107,0.048
		c-0.396,0.378-0.798,0.582-1.367,0.582c-1.002,0-1.775-0.827-1.775-1.889V8c0-1.055,0.762-1.876,1.77-1.876
		c0.588,0,0.988,0.228,1.337,0.546c0.024,0.023,0.065,0.041,0.108,0.041c0.083,0,0.161-0.071,0.161-0.155
		c0-0.054-0.03-0.097-0.06-0.126c-0.408-0.348-0.846-0.588-1.541-0.588C24.387,5.841,23.499,6.825,23.499,8.012 M3.942,9.979V6.045
		c0-0.083-0.072-0.155-0.156-0.155S3.63,5.962,3.63,6.045v1.811H0.944V6.045c0-0.083-0.072-0.155-0.156-0.155
		C0.704,5.889,0.632,5.961,0.632,6.045v3.934c0,0.083,0.072,0.155,0.156,0.155s0.156-0.072,0.156-0.155V8.144H3.63v1.835
		c0,0.083,0.072,0.155,0.156,0.155S3.942,10.062,3.942,9.979 M8.89,8.024C8.89,9.062,8.146,9.9,7.109,9.9
		c-1.038,0-1.793-0.851-1.793-1.889V8c0-1.037,0.744-1.877,1.781-1.877c1.038,0,1.793,0.852,1.793,1.889V8.024z M9.214,8
		c0-1.145-0.833-2.158-2.104-2.158c-1.271,0-2.117,1.025-2.117,2.171v0.013c0,1.145,0.833,2.158,2.104,2.158
		s2.117-1.025,2.117-2.171V8z M13.572,8.33V6.045c0-0.083-0.072-0.155-0.156-0.155S13.26,5.962,13.26,6.045v2.32
		c0,1.014-0.545,1.529-1.396,1.529c-0.888,0-1.421-0.569-1.421-1.56v-2.29c0-0.083-0.072-0.155-0.156-0.155S10.13,5.962,10.13,6.045
		v2.32c0,1.175,0.713,1.812,1.721,1.812C12.87,10.176,13.572,9.535,13.572,8.33 M17.554,9.025V9.013
		c0-0.611-0.407-0.959-1.379-1.157c-0.995-0.204-1.223-0.474-1.223-0.917V6.927c0-0.438,0.408-0.792,1.025-0.792
		c0.426,0,0.792,0.114,1.157,0.396c0.03,0.023,0.066,0.036,0.102,0.036c0.084,0,0.156-0.072,0.156-0.155
		c0-0.061-0.036-0.103-0.066-0.127c-0.384-0.287-0.773-0.432-1.337-0.432c-0.779,0-1.349,0.479-1.349,1.104v0.012
		c0,0.636,0.408,0.978,1.415,1.182c0.953,0.191,1.187,0.449,1.187,0.893v0.013c0,0.479-0.432,0.833-1.061,0.833
		c-0.576,0-0.996-0.168-1.415-0.545c-0.024-0.019-0.061-0.037-0.102-0.037c-0.084,0-0.156,0.072-0.156,0.156
		c0,0.055,0.03,0.096,0.06,0.12c0.474,0.39,0.965,0.587,1.595,0.587C16.973,10.17,17.554,9.703,17.554,9.025 M18.881,9.823V8.138
		h2.284c0.078,0,0.145-0.066,0.145-0.145S21.244,7.85,21.165,7.85h-2.284V6.201h2.555c0.078,0,0.144-0.065,0.144-0.144
		c0-0.077-0.065-0.144-0.144-0.144h-2.711c-0.084,0-0.155,0.072-0.155,0.155v3.886c0,0.084,0.071,0.156,0.155,0.156h2.74
		c0.078,0,0.145-0.066,0.145-0.145s-0.066-0.145-0.145-0.145L18.881,9.823L18.881,9.823z"/>
	<path d="M29.629,8.642c0.006-0.05-0.036-0.089-0.093-0.096c-0.051-0.004-0.089,0.031-0.108,0.059
		c-0.082,0.127-0.15,0.176-0.273,0.162c-0.192-0.021-0.486-0.256-0.701-0.279c-0.203-0.021-0.348,0.049-0.484,0.324
		c-0.008,0.014-0.017,0.043-0.018,0.059c-0.006,0.049,0.036,0.088,0.092,0.094c0.057,0.006,0.09-0.03,0.109-0.059
		c0.082-0.126,0.15-0.174,0.273-0.16c0.191,0.02,0.486,0.256,0.701,0.277c0.203,0.021,0.347-0.048,0.484-0.322
		C29.619,8.685,29.627,8.657,29.629,8.642"/>
	<path d="M27.969,6.96c0-0.492,0.35-0.865,0.812-0.865c0.466,0,0.83,0.388,0.83,0.882v0.016c0,0.493-0.35,0.866-0.813,0.866
		c-0.465,0-0.829-0.388-0.829-0.882V6.96z M27.684,6.977v0.016c0,0.628,0.482,1.12,1.099,1.12c0.624,0,1.114-0.499,1.114-1.136
		V6.961c0-0.628-0.482-1.12-1.099-1.12C28.173,5.841,27.684,6.34,27.684,6.977"/>
</g>
</svg>
