<?xml version="1.0" encoding="utf-8"?>
<!-- Generator: Adobe Illustrator 16.0.0, SVG Export Plug-In . SVG Version: 6.00 Build 0)  -->
<!DOCTYPE svg PUBLIC "-//W3C//DTD SVG 1.1//EN" "http://www.w3.org/Graphics/SVG/1.1/DTD/svg11.dtd">
<svg version="1.1" id="dwmHat" xmlns="http://www.w3.org/2000/svg" xmlns:xlink="http://www.w3.org/1999/xlink" x="0px" y="0px"
	 width="1000px" height="1000px" viewBox="0 0 1000 1000" enable-background="new 0 0 1000 1000" xml:space="preserve">
<path fill-rule="evenodd" clip-rule="evenodd" d="M990,616.876c0,0-155.14,176.631-498.779,173.354
	C149.952,786.969,20.544,636.543,20.544,636.543L10,573.763c0,0,0-8.4,0-14.744c0-28.21,23.196-51.104,52.7-53.638v-0.478
	c0,0,0.335,0.159,0.902,0.406c1.471-0.105,2.854-0.406,4.36-0.406c18.429,0,34.643,8.168,45.255,20.679
	c24.206,9.215,55.995,20.431,93.029,31.47c0.443-58.368,3.97-114.274,3.97-150.548c0-108.675,94.359-196.779,210.761-196.779
	h147.519c116.382,0,210.743,88.104,210.743,196.779c0,36.096,3.509,91.648,3.97,149.716c47.082-13.892,85.694-27.98,110.995-37.885
	c8.561-6.965,19.262-11.519,31.138-12.812c0.85-0.372,1.435-0.619,1.435-0.619v0.478c1.754-0.142,3.455-0.478,5.263-0.478
	c31.999,0,57.961,24.223,57.961,54.115c0,6.308,0,14.744,0,14.744V616.876z M230.136,563.928
	c75.326,20.91,168.071,39.356,261.085,39.356c94.021,0,188.22-18.446,264.878-39.356H230.136z M926.776,612.641v0.479
	c0,0-218.381,98.396-435.556,98.396C276.366,711.517,62.7,613.12,62.7,613.12v-0.479c-1.241-0.124-2.392-0.461-3.616-0.639
	c69.408,46.868,212.764,120.692,432.137,125.28c220.931,4.624,374.526-75.078,448.472-124.873c-2.535,0.319-5.03,0.711-7.653,0.711
	C930.231,613.12,928.53,612.782,926.776,612.641z"/>
</svg>
