<?xml version="1.0" encoding="utf-8"?>
<!-- Generator: Adobe Illustrator 16.0.0, SVG Export Plug-In . SVG Version: 6.00 Build 0)  -->
<!DOCTYPE svg PUBLIC "-//W3C//DTD SVG 1.1//EN" "http://www.w3.org/Graphics/SVG/1.1/DTD/svg11.dtd">
<svg version="1.1" id="Layer_1" xmlns="http://www.w3.org/2000/svg" xmlns:xlink="http://www.w3.org/1999/xlink" x="0px" y="0px"
	 width="251.773px" height="200px" viewBox="-132.094 -0.834 251.773 200" enable-background="new -132.094 -0.834 251.773 200"
	 xml:space="preserve">
<g>
	<path d="M60.08,73.058h-4.014l0.114,31.7h3.899c9.307,0,13.552-5.7,13.612-15.821C73.692,78.815,69.445,73.058,60.08,73.058z"/>
	<path d="M-30.236,72.473c-6.456,0-11.399,3.841-11.399,12.448c0,8.609,4.944,12.448,11.399,12.448c6.456,0,11.4-3.837,11.4-12.448
		C-18.836,76.314-23.78,72.473-30.236,72.473z"/>
	<path d="M15.821,72.473c-6.456,0-11.399,3.841-11.399,12.448c0,8.609,4.944,12.448,11.399,12.448
		c6.456,0.002,11.4-3.837,11.4-12.448C27.221,76.314,22.277,72.473,15.821,72.473z"/>
	<path d="M16.684,43.419c-4.968,0-8.398,2.722-8.398,7.039c0,4.14,2.365,7.272,6.623,7.272c4.26,0,7.396-3.312,8.637-6.327
		c-0.061-0.649-0.12-1.3-0.12-7.984H16.684z"/>
	<path d="M-67.582,138.235c7.521,0,10.528-2.404,10.528-8.648c0-3.985-2.255-9.4-9.926-9.4l-6.693,0.148l0.076,17.9H-67.582z"/>
	<path d="M-8.545,119.735c-8.349,0-14.742,4.965-14.742,16.096c0,11.132,6.394,16.094,14.742,16.094
		c8.348,0,14.74-4.962,14.74-16.094C6.195,124.7-0.197,119.735-8.545,119.735z"/>
	<path d="M-64.95,143.878h-8.648l0.075,17.524h8.875c8.875,0,11.731-4.438,11.731-7.973
		C-52.918,146.286-56.227,143.878-64.95,143.878z"/>
	<path d="M-24.882,24.022c-6.092,0-10.467,4.79-11.001,13.721l21.056-0.176C-14.826,30.764-18.494,24.022-24.882,24.022z"/>
	<g>
		<path d="M118.805,110.832l-0.017-0.031c-1.066-0.212-1.123-0.585-0.265-0.997c0.635-0.302,0.772-0.901,0.312-1.563
			c-0.384-0.572-0.667-1.157-1.316-1.666c-0.51-0.396-0.541-0.847,0.038-1.291c0.504-0.393,0.539-0.872,0.44-1.338
			c-0.221-1.017-0.562-2.018-0.28-3.057c0.125-0.456-0.015-0.968-0.158-1.431c-0.302-0.949,0.066-1.834,0.475-2.731
			c0.075-0.169,0.041-0.36,0.048-0.546c0.019-0.508-0.042-1.018,0.528-1.474c0.275-0.219,0.344-0.531,0.064-0.756
			c-0.681-0.547-0.562-1.207-0.909-1.799c-0.088-0.156-0.129-0.335-0.004-0.491c0.799-1.008,0.633-2.128,1.089-3.175
			c0.276-0.64,0.312-1.272,0.328-1.916c0.003-0.302-0.021-0.585-0.252-0.872c-0.264-0.335-0.061-0.689,0.108-1.021
			c0.356-0.716,0.394-1.426,0.184-2.159c-0.088-0.297,0.112-0.614,0.121-0.926c0.035-1.162,0.041-2.319,0.052-3.485
			c0.006-0.147-0.015-0.281-0.132-0.429c-0.32-0.354-0.418-0.725,0.015-1.083c0.202-0.175,0.209-0.375,0.194-0.576
			c-0.075-0.769-0.158-1.562-0.098-2.313c0.087-1.037,0.016-2.076,0.109-3.112c0.027-0.285-0.026-0.561-0.312-0.809
			c-0.209-0.185-0.196-0.37-0.048-0.566c0.645-0.834,0.427-1.713,0.239-2.552c-0.177-0.831,0.105-1.639,0.048-2.453
			c-0.048-0.725,0.355-1.428-0.231-2.174c-0.342-0.44-0.07-1.028-0.179-1.551c-0.053-0.281-0.033-0.585-0.256-0.828
			c-0.825-0.869-0.586-1.828-0.827-2.749c-0.232-0.855-0.092-1.742-0.646-2.577c-0.518-0.787-0.254-1.605,0.031-2.398
			c0.432-1.195,0.575-2.386,0.336-3.598c-0.159-0.806-0.073-1.619-0.178-2.43c-0.151-1.122-0.131-2.24-0.32-3.371
			c-0.197-1.236,0.044-2.509,0.197-3.76c0.138-1.149,0.467-2.299,0.604-3.447c0.121-1.006-0.254-2.01-0.15-3.02
			c0.173-1.734-0.445-3.459-0.188-5.194c0.049-0.314,0.092-0.631,0.18-0.941c0.2-0.703,0.362-1.393,0.021-2.103
			c-0.127-0.259-0.013-0.566,0.061-0.838c0.133-0.475,0.235-0.937-0.019-1.418c-0.239-0.454,0.104-0.921,0.138-1.377
			c0.095-1.147,0.091-2.314,0.227-3.45c0.123-0.997,0.154-1.998,0.316-2.995c0.064-0.416-0.189-0.816-0.223-1.194
			c-0.088-0.842-0.852-1.637-0.419-2.523c0.479-0.989,0.156-1.997-0.181-2.981c-0.443-1.332-0.272-2.665,0.008-3.993
			c0.144-0.683,0.031-1.359,0.011-2.038c-0.025-0.707,0.136-1.401,0.306-2.099h-249.547c0,0.019-0.009,0.042-0.009,0.064
			c0.016,0.568,0.309,1.135,0.447,1.698c0.23,0.903,0.064,1.766-0.142,2.643c-0.019,0.079-0.098,0.171-0.076,0.239
			c0.591,1.545-0.14,3.094,0.096,4.633c0.076,0.497,0.169,0.986,0.344,1.473c0.377,1.046,0.283,2.11,0.07,3.158
			c-0.292,1.482-0.554,2.958-0.237,4.445c0.309,1.444,0.351,2.884,0.064,4.332c-0.114,0.541-0.142,1.093,0.055,1.635
			c0.151,0.396-0.184,0.78-0.108,1.181c0.368,1.887,0.307,3.789,0.625,5.684c0.14,0.838-0.213,1.707-0.366,2.56
			c-0.028,0.178-0.055,0.357-0.004,0.541c0.497,1.926,0.565,3.837-0.166,5.759c-0.382,1.017,0.057,2.088-0.106,3.127
			c-0.166,1.05-0.125,2.106-0.431,3.158c-0.252,0.859,0.199,1.736,0.368,2.612c0.029,0.184,0.154,0.371,0.046,0.541
			c-0.368,0.574-0.107,1.104,0.044,1.687c0.151,0.58,0.226,1.238-0.169,1.832c-0.574,0.859-0.679,1.725-0.388,2.628
			c0.235,0.733,0.011,1.48-0.037,2.222c-0.02,0.25-0.108,0.506,0.052,0.739c0.546,0.791,0.283,1.593,0.114,2.393
			c-0.07,0.302,0.046,0.589,0.206,0.876c0.296,0.546,0.151,1.105,0.147,1.668c-0.009,1.534-0.848,3.022-0.666,4.578
			c0.131,1.129-0.02,2.268-0.291,3.397c-0.146,0.596,0,1.191,0.245,1.77c0.094,0.217,0.199,0.452,0.057,0.642
			c-0.631,0.827-0.048,1.631,0.104,2.438c0.066,0.348,0.158,0.687,0.127,1.036c-0.018,0.198-0.121,0.427,0.006,0.59
			c0.912,1.178,0.206,2.394,0.312,3.577c0.044,0.567,0,1.124,0.14,1.686c0.052,0.226,0.09,0.476-0.007,0.693
			c-0.66,1.418-0.151,2.836-0.017,4.248c0.039,0.42-0.022,0.782-0.401,1.135c-0.408,0.387-0.495,0.786-0.305,1.236
			c0.265,0.622,0.452,1.241,0.287,1.907c-0.202,0.822,0.112,1.65,0.254,2.474c0.066,0.387,0.044,0.743-0.237,1.113
			c-0.414,0.539-0.458,1.131-0.324,1.707c0.112,0.5,0.151,0.987,0.006,1.482c-0.151,0.513,0.094,1.029,0.062,1.533
			c-0.057,1.049,0.386,2.079,0.396,3.094c0.018,0.843-0.006,1.715-0.124,2.555c-0.112,0.812-0.351,1.595,0.039,2.394
			c0.037,0.084,0.068,0.175,0.042,0.25c-0.546,1.47-0.436,2.954-0.517,4.437c-0.015,0.314-0.023,0.633,0.188,0.929
			c0.489,0.697,0.289,1.412,0.066,2.104c-0.208,0.63-0.259,1.228-0.081,1.863c0.226,0.806,0.513,1.624,0.039,2.439
			c-0.026,0.046-0.039,0.104-0.021,0.146c0.359,0.999-0.193,2.003,0.028,3.008c0.051,0.235,0.022,0.467-0.096,0.688
			c-0.12,0.232-0.206,0.479-0.041,0.685c0.686,0.854,0.23,1.725,0.164,2.586c-0.029,0.401-0.046,0.796,0.022,1.191
			c0.103,0.637,0.355,1.255,0.136,1.923c-0.184,0.555,0.471,1.104,0.434,1.693c-0.015,0.262,0.094,0.524,0.007,0.791
			c-0.368,1.128-0.12,2.251,0.151,3.354c0.199,0.794,0.35,1.589,0.202,2.363c-0.169,0.902,0.199,1.789,0.05,2.669
			c-0.237,1.412,0.263,2.824-0.269,4.244c-0.281,0.778-0.226,1.619,0.039,2.427c0.064,0.213,0.086,0.429-0.018,0.64
			c-0.189,0.396-0.197,0.793,0.145,1.161c0.585,0.629,0.109,1.243-0.127,1.839c-0.305,0.772-0.283,1.543-0.301,2.315
			c-0.008,0.206,0.064,0.401,0.217,0.585c0.287,0.339,0.39,0.677,0.197,1.056c-0.169,0.327-0.019,0.658,0.237,0.966
			c0.366,0.433,0.447,0.897,0.07,1.295c-0.859,0.908-0.664,1.898-0.686,2.851c-0.031,1.135,0.062,2.273,0.219,3.412
			c0.162,1.201,0.039,2.444-0.156,3.664c-0.083,0.513-0.022,0.991,0.396,1.451c0.359,0.388,0.377,0.746-0.116,1.112
			c-0.758,0.552-0.197,1.147-0.127,1.729c0.048,0.36,0.121,0.715-0.019,1.077c-0.084,0.223-0.105,0.477-0.003,0.691
			c0.287,0.602,0.255,1.176-0.184,1.751c-0.189,0.247-0.072,0.482,0.178,0.705c0.399,0.354,0.508,0.735,0.285,1.139
			c-0.217,0.392-0.228,0.785,0,1.175c0.438,0.739,0.068,1.484-0.026,2.213c-0.094,0.708,0.114,1.422-0.125,2.117
			c-0.02,0.05,0.019,0.104-0.009,0.148c-0.885,1.678,0.121,3.331,0.16,4.992c0.021,0.756,0.186,1.53-0.224,2.305
			c-0.33,0.614-0.076,1.281-0.011,1.922c0.09,0.877,0.23,1.758-0.112,2.619c-0.267,0.683,0.558,0.985,1.234,1.364
			c0.555,0.308,1.151,0.266,1.773,0.083c0.475-0.134,0.953-0.119,1.438-0.013c1.977,0.436,4.035,0.752,6.045,1.12
			c1.488,0.275,3.211,0.275,4.847,0.189c1.352-0.079,2.669,0.011,3.941,0.269c0.541,0.114,1.036,0.162,1.609,0.086
			c0.712-0.09,1.457-0.086,2.172,0.024c1.046,0.148,2.115,0.225,3.182,0.307c0.383,0.031,0.769,0.033,1.122-0.062
			c1.854-0.49,3.815-0.427,5.751-0.301c1.488,0.103,2.878-0.137,4.31-0.245c1.229-0.088,2.424-0.346,3.702-0.221
			c0.274,0.027,0.589-0.019,0.854-0.071c0.338-0.07,0.691-0.105,1.03-0.06c1.69,0.206,3.375,0.252,5.062,0
			c0.027,0,0.062-0.011,0.088,0c2.203,0.445,4.443-0.175,6.733,0.127c1.424,0.193,3.031,0.281,4.624,0.199
			c1.904-0.098,3.842,0.04,5.764,0.113c1.024,0.039,2.034,0.102,3.007-0.15c0.495-0.123,1.036-0.182,1.545-0.106
			c1.199,0.169,2.439,0.062,3.647,0.191c0.592,0.062,1.217,0.051,1.828-0.045c0.594-0.094,1.223-0.075,1.826-0.032
			c2.341,0.171,4.648-0.019,6.958-0.197c0.112-0.009,0.241-0.031,0.35-0.009c1.611,0.269,3.285,0.042,4.913,0.189
			c0.721,0.061,1.383-0.118,2.082-0.087c1.972,0.079,3.957-0.031,5.928,0.09c0.574,0.031,1.159,0.021,1.738-0.064
			c0.453-0.063,0.923-0.067,1.374,0.041c1.102,0.263,2.264,0.225,3.432,0.258c1.538,0.044,2.906,0.425,4.138,0.954
			c1.726,0.749,2.807,0.585,3.605-0.546c0.217-0.3,0.583-0.489,1.163-0.526c0.333-0.019,0.651,0.015,0.863,0.181
			c0.221,0.176,0.018,0.316-0.164,0.441c-0.143,0.108-0.366,0.217-0.145,0.346c0.271,0.15,0.483-0.006,0.662-0.108
			c0.806-0.445,1.793-0.597,2.888-0.58c0.772,0.021,1.502-0.038,2.185-0.281c0.497-0.173,1.072-0.162,1.604-0.038
			c0.867,0.2,1.753,0.244,2.666,0.206c0.312-0.014,0.666-0.006,0.951,0.057c0.949,0.21,1.85,0.29,2.713-0.12
			c0.138-0.067,0.396-0.099,0.58-0.082c1.958,0.15,3.87-0.195,5.815-0.23c1.65-0.033,3.272,0.218,4.88,0.076
			c1.548-0.139,3.077,0.04,4.569-0.035c1.464-0.075,2.849-0.033,4.302,0.029c1.503,0.055,2.985,0.269,4.558,0.177
			c1.922-0.108,3.888,0.069,5.84,0.13c0.935,0.028,1.867,0.07,2.755-0.163c0.489-0.131,1.03-0.193,1.541-0.116
			c1.207,0.177,2.436,0.07,3.649,0.197c0.592,0.061,1.217,0.053,1.823-0.043c0.632-0.101,1.291-0.075,1.92-0.033
			c2.317,0.162,4.593-0.015,6.872-0.196c0.116-0.011,0.245-0.031,0.353-0.011c1.615,0.257,3.285,0.051,4.911,0.186
			c0.727,0.055,1.381-0.11,2.084-0.083c1.972,0.062,3.956-0.027,5.926,0.087c0.578,0.038,1.153,0.027,1.74-0.056
			c0.452-0.066,0.923-0.075,1.377,0.031c1.105,0.271,2.27,0.223,3.432,0.265c1.574,0.045,2.967,0.429,4.23,0.962
			c1.639,0.687,2.709,0.508,3.509-0.57c0.223-0.301,0.595-0.483,1.174-0.519c0.37-0.02,0.716,0.015,0.929,0.203
			c0.195,0.169,0.015,0.312-0.15,0.45c-0.114,0.088-0.368,0.182-0.114,0.283c0.202,0.088,0.386-0.027,0.517-0.11
			c0.804-0.466,1.817-0.566,2.9-0.566c0.768,0.006,1.497-0.05,2.186-0.276c0.594-0.194,1.254-0.143,1.866-0.009
			c0.699,0.147,1.413,0.2,2.158,0.14c0.115-0.013,0.25-0.035,0.346-0.011c1.949,0.511,3.679-0.237,5.526-0.304
			c0.93-0.038,1.678-0.208,2.246-0.646c0.31-0.237,0.749-0.418,1.082-0.649c0.446-0.311,0.941-0.386,1.683-0.34
			c1.845,0.117,3.71,0.233,5.571,0c0.658-0.087,1.328-0.004,1.982-0.006c1.141-0.007,2.234,0.079,3.323,0.231
			c0.293,0.041,0.668,0.012,0.949-0.051c1.876-0.449,3.81-0.337,5.755-0.243c0.903,0.042,1.812-0.039,2.708-0.108
			c0.651-0.052,0.949-0.32,0.839-0.687c-0.762-2.505-0.256-5.01-0.019-7.513c0.075-0.772,0.103-1.555,0.223-2.329
			c0.178-1.1,0.194-2.209,0.5-3.307c0.195-0.706-0.046-1.451,0.044-2.178c0.235-1.819-0.604-3.581-0.758-5.374
			c-0.075-0.905,0.01-1.821,0.1-2.725c0.116-1.139,0.296-2.273,0.491-3.41c0.443-2.599-0.008-5.197-0.077-7.793
			c-0.048-1.843-0.545-3.684-0.738-5.53c-0.084-0.83-0.145-1.665-0.032-2.481c0.196-1.337,0.038-2.678,0.419-4.015
			c0.213-0.739,0.075-1.521-0.029-2.275c-0.116-0.949-0.096-1.887,0.179-2.819c0.349-1.199,0.442-2.394-0.004-3.598
			c-0.316-0.852-0.075-1.738,0.188-2.566c0.46-1.454,0.088-2.865-0.14-4.296c-0.229-1.453-0.489-2.896,0.053-4.341
			c0.443-1.183,0.431-2.396,0.764-3.583c0.075-0.294,0.223-0.581,0.323-0.866c0.181-0.539,0-1.051-0.252-1.567
			c-0.54-1.12-0.298-2.268-0.334-3.41c-0.026-0.744,0.065-1.487,0.362-2.22c0.084-0.21,0.182-0.431,0.706-0.414
			c0.198,0.008,0.302-0.064,0.352-0.177c0.263-0.625,0.772-1.212,0.706-1.883c-0.085-0.857,0.416-1.69,0.479-2.55
			C119.703,111.302,119.69,111.007,118.805,110.832z M-128.247,187.783c-0.464-0.029-0.738-0.275-0.69-0.546
			c0.039-0.197,0.156-0.429,0.671-0.441c0.449,0.09,0.568,0.319,0.539,0.55C-127.754,187.516-127.833,187.8-128.247,187.783z
			 M-128.247,145.037c-0.489,0.031-0.565-0.168-0.561-0.381c0.005-0.316,0.169-0.649,0.715-0.697
			c0.471-0.042,0.504,0.285,0.585,0.498C-127.565,144.739-127.658,145.004-128.247,145.037z M-126.231,93.139
			c-0.188,0.154-0.381,0.306-0.765,0.274c-0.353-0.027-0.432-0.21-0.519-0.356c-0.076-0.12-0.107-0.278-0.031-0.391
			c0.197-0.281,0.007-0.8,0.772-0.765c0.669,0.027,0.596,0.494,0.682,0.772C-126.115,92.854-126.068,93.006-126.231,93.139z
			 M48.73,25.087l-5.619,0.53c0,0,0.828-5.617,0.828-5.678l9.64,0.476l13.189-0.475v4.435l-8.635-0.057l0.118,32.469H73.51
			l1.064-11.711h6.86l-0.233,16.382l-27.624-0.471l-9.64,0.473c0-0.059-0.828-5.678-0.828-5.678l6.272,0.651L48.73,25.087z
			 M14.083,24.02c-8.755,0-8.339,4.435-8.339,4.435c2.365-0.473,4.554,0.532,4.554,4.14c0,2.72-2.248,4.909-4.97,4.909
			c-2.719,0-4.907-2.189-4.907-5.68c0-5.854,4.199-12.479,15.555-12.479c12.42,0,17.625,6.092,17.388,13.189l-0.709,19.167
			c0,5.086,1.833,5.736,2.954,5.736c2.663,0,2.367-3.785,2.367-6.152l3.491,0.059c0,6.801-1.893,11.06-8.873,11.06
			c-3.607,0-5.915-1.419-7.982-6.387c-2.13,3.135-5.797,6.387-12.065,6.387c-7.453,0-12.774-4.67-12.774-10.94
			c0-7.512,6.504-11.477,14.015-11.477h9.64l0.12-6.562C23.603,28.69,21.001,24.02,14.083,24.02z M15.823,67.879
			c11.05,0.002,20.534,5.18,20.534,17.043c0,11.867-9.483,17.043-20.534,17.043c-11.052,0-20.534-5.176-20.534-17.043
			C-4.711,73.056,4.771,67.879,15.823,67.879z M-24.762,19.348c11.356,0,19.754,7.451,19.754,22.476h-31.05
			c0,9.167,4.495,15.91,12.303,15.91c7.037,0,12.242-3.729,12.242-9.64l5.027,0.057c0,8.694-7.157,14.253-17.21,14.253
			c-12.303,0-21.646-7.274-21.646-22.178C-45.344,25.087-35.41,19.348-24.762,19.348z M-30.236,67.879
			c11.052,0,20.532,5.18,20.532,17.043c0,11.867-9.481,17.043-20.533,17.043c-11.052,0-20.53-5.176-20.53-17.043
			C-50.768,73.056-41.288,67.879-30.236,67.879z M-86.144,25.083l-5.558,0.534c0,0,0.826-5.617,0.826-5.678l9.642,0.59l12.538-0.59
			c8.28,0,14.313,3.016,14.313,11.948c0,5.619-3.193,8.694-7.924,10.35c4.197,1.716,6.86,4.732,6.86,9.936
			c0,4.318,1.006,5.264,2.603,5.264c2.012,0,2.721-0.827,2.721-6.091h3.489c0,7.337-2.246,11.181-9.285,11.181
			c-3.728,0-8.458-3.787-8.458-11.829c0-4.615-2.838-6.447-8.339-6.507h-3.964l0.059,13.013h5.264v4.258l-9.934-0.473l-9.642,0.471
			c0-0.059-0.83-5.678-0.83-5.678l6.271,0.651L-86.144,25.083z M-86.302,73.524l-5.525,0.521c0,0,0.814-5.525,0.814-5.584
			l9.481,0.465l27.165-0.465l0.233,11.343h-6.749l-1.048-6.747h-15.123l0.057,14.773h7.157l0.64-3.373h4.826v11.749h-4.826
			l-0.64-3.373h-7.157l0.059,12.213l8.376-0.116v4.362l-12.971-0.465l-9.481,0.469c0-0.059-0.814-5.586-0.814-5.586l6.165,0.643
			L-86.302,73.524z M-62.618,167.342l-16.772-0.751l-12.259,0.751c0-0.075-1.054-7.221-1.054-7.221l7.897,0.827l-0.828-39.86
			l-7.068,0.677c0,0,1.054-7.144,1.054-7.22l12.259,0.753l16.772-0.753c10.528,0,17.374,3.835,17.374,15.192
			c0,5.34-2.785,8.724-7.146,10.83c6.769,2.03,11.282,5.792,11.282,12.709C-41.108,163.731-50.51,167.342-62.618,167.342z
			 M-48.209,109.296v-5.003h35.947v5.003H-48.209z M14.694,167.342h-46.48v-6.469h46.48V167.342z M-8.545,157.866
			c-14.29,0-26.55-6.693-26.55-22.035c0-15.343,12.261-22.036,26.55-22.036c14.291,0,26.548,6.691,26.548,22.036
			C18.003,151.173,5.744,157.866-8.545,157.866z M-2.15,109.296v-5.003h35.947v5.003H-2.15z M79.901,119.96l-6.917,0.075
			l-15.043,21.136l14.365,20.756h7.596v5.415l-12.634-0.6l-12.262,0.6c0-0.075-1.052-7.221-1.052-7.221l5.566,0.603l-8.876-13.086
			l-11.28,14.214l9.25,0.075v5.415l-12.634-0.6l-12.261,0.6c0-0.075-1.054-7.221-1.054-7.221l8.198,0.827l14.667-18.426
			l-15.042-21.51l-7.82,0.75c0,0,1.054-7.144,1.054-7.219l12.259,0.601l12.634-0.601v5.414l-6.842,0.076l10.98,15.946l10.455-15.117
			l-9.252,0.901c0,0,1.052-7.144,1.052-7.22l12.262,0.602l12.634-0.602V119.96z M59.031,109.296l-7.446-0.408l-9.479,0.466
			c0-0.058-0.816-5.584-0.816-5.584l6.165,0.64l-0.64-30.885l-5.527,0.521c0,0,0.816-5.525,0.816-5.584l9.481,0.465l7.446-0.406
			c10.995,0,23.791,4.595,23.791,20.416C82.765,104.7,70.026,109.296,59.031,109.296z"/>
		<path d="M-71.949,39.635c5.914,0,8.279-2.011,8.279-7.865c0-3.136-2.899-7.159-8.932-7.159h-4.136l0.057,15.023H-71.949z"/>
	</g>
</g>
</svg>
