<?xml version="1.0" encoding="utf-8"?>
<!-- Generator: Adobe Illustrator 16.0.0, SVG Export Plug-In . SVG Version: 6.00 Build 0)  -->
<!DOCTYPE svg PUBLIC "-//W3C//DTD SVG 1.1//EN" "http://www.w3.org/Graphics/SVG/1.1/DTD/svg11.dtd">
<svg version="1.1" id="Layer_1" xmlns="http://www.w3.org/2000/svg" xmlns:xlink="http://www.w3.org/1999/xlink" x="0px" y="0px"
	 width="133.667px" height="106.981px" viewBox="-14 -0.833 133.667 106.981" enable-background="new -14 -0.833 133.667 106.981"
	 xml:space="preserve">
<path fill="#6C0900" d="M119.206,58.438c-0.567-0.113-0.596-0.31-0.141-0.529c0.338-0.162,0.41-0.479,0.167-0.832
	c-0.204-0.302-0.353-0.613-0.7-0.883c-0.269-0.21-0.287-0.449,0.021-0.685c0.267-0.207,0.287-0.462,0.234-0.71
	c-0.118-0.538-0.298-1.071-0.149-1.622c0.067-0.243-0.008-0.514-0.085-0.759c-0.16-0.505,0.037-0.974,0.252-1.451
	c0.041-0.091,0.022-0.192,0.027-0.289c0.011-0.27-0.024-0.541,0.279-0.784c0.148-0.116,0.184-0.282,0.035-0.402
	c-0.362-0.29-0.298-0.641-0.482-0.955c-0.048-0.083-0.07-0.177-0.002-0.259c0.424-0.537,0.336-1.131,0.578-1.686
	c0.146-0.34,0.165-0.676,0.173-1.018c0.002-0.16-0.011-0.309-0.133-0.462c-0.141-0.178-0.032-0.367,0.057-0.542
	c0.19-0.38,0.21-0.757,0.097-1.146c-0.047-0.158,0.061-0.327,0.066-0.492c0.017-0.617,0.02-1.232,0.027-1.849
	c0.003-0.079-0.008-0.15-0.071-0.228c-0.168-0.188-0.221-0.384,0.008-0.575c0.108-0.093,0.112-0.2,0.103-0.306
	c-0.039-0.408-0.084-0.829-0.052-1.228c0.046-0.55,0.008-1.102,0.058-1.652c0.014-0.152-0.014-0.298-0.165-0.43
	c-0.112-0.097-0.106-0.196-0.025-0.301c0.34-0.442,0.225-0.91,0.127-1.354c-0.094-0.441,0.054-0.868,0.024-1.302
	c-0.024-0.384,0.188-0.758-0.122-1.154c-0.182-0.234-0.038-0.546-0.095-0.824c-0.028-0.149-0.016-0.309-0.136-0.438
	c-0.438-0.463-0.31-0.972-0.442-1.46c-0.122-0.455-0.047-0.925-0.341-1.369c-0.274-0.418-0.135-0.852,0.017-1.274
	c0.228-0.634,0.304-1.266,0.178-1.911c-0.084-0.427-0.039-0.859-0.095-1.29c-0.079-0.595-0.07-1.189-0.169-1.788
	c-0.106-0.658,0.023-1.333,0.103-1.998c0.074-0.612,0.248-1.22,0.323-1.831c0.064-0.534-0.135-1.067-0.081-1.604
	c0.09-0.919-0.237-1.836-0.098-2.757c0.025-0.166,0.047-0.334,0.094-0.499c0.107-0.373,0.193-0.74,0.01-1.117
	c-0.067-0.137-0.006-0.299,0.033-0.445c0.069-0.252,0.126-0.498-0.011-0.753c-0.126-0.242,0.056-0.489,0.075-0.732
	c0.051-0.611,0.048-1.228,0.12-1.832c0.066-0.531,0.082-1.062,0.168-1.592c0.034-0.219-0.099-0.432-0.118-0.632
	c-0.047-0.448-0.453-0.871-0.223-1.34c0.255-0.526,0.083-1.059-0.094-1.583c-0.237-0.707-0.145-1.415,0.004-2.121
	c0.076-0.362,0.015-0.721,0.004-1.081c-0.013-0.375,0.074-0.745,0.163-1.115H-13.696c0,0.011-0.004,0.023-0.004,0.034
	c0.008,0.301,0.164,0.602,0.237,0.901c0.122,0.48,0.034,0.938-0.075,1.404c-0.009,0.042-0.052,0.089-0.039,0.127
	c0.312,0.819-0.076,1.642,0.05,2.461c0.04,0.262,0.089,0.522,0.182,0.781c0.201,0.555,0.15,1.119,0.037,1.677
	c-0.155,0.787-0.294,1.571-0.126,2.359c0.164,0.768,0.187,1.533,0.034,2.3c-0.059,0.288-0.075,0.581,0.03,0.869
	c0.079,0.211-0.098,0.414-0.058,0.627c0.195,1.002,0.163,2.012,0.332,3.017c0.074,0.446-0.113,0.907-0.194,1.359
	c-0.015,0.096-0.029,0.19-0.002,0.288c0.263,1.022,0.299,2.036-0.088,3.057c-0.203,0.54,0.03,1.108-0.057,1.659
	c-0.088,0.558-0.066,1.119-0.228,1.677c-0.134,0.456,0.105,0.922,0.195,1.387c0.016,0.096,0.082,0.196,0.024,0.286
	c-0.195,0.304-0.056,0.586,0.024,0.895c0.081,0.307,0.12,0.657-0.09,0.972c-0.305,0.456-0.359,0.916-0.206,1.396
	c0.125,0.389,0.006,0.787-0.021,1.18c-0.009,0.132-0.056,0.268,0.029,0.392c0.291,0.421,0.149,0.845,0.059,1.271
	c-0.036,0.16,0.026,0.311,0.11,0.464c0.158,0.29,0.08,0.586,0.079,0.885c-0.005,0.815-0.451,1.605-0.354,2.429
	c0.071,0.601-0.009,1.206-0.154,1.805c-0.077,0.317,0,0.632,0.131,0.941c0.049,0.114,0.104,0.24,0.029,0.338
	c-0.335,0.44-0.025,0.868,0.056,1.296c0.035,0.183,0.084,0.364,0.067,0.549c-0.01,0.106-0.064,0.226,0.003,0.314
	c0.485,0.625,0.11,1.269,0.166,1.901c0.024,0.298,0.001,0.595,0.074,0.893c0.028,0.121,0.048,0.253-0.004,0.368
	c-0.351,0.753-0.079,1.506-0.008,2.256c0.021,0.222-0.012,0.415-0.213,0.602c-0.218,0.205-0.264,0.417-0.163,0.656
	c0.141,0.331,0.24,0.66,0.152,1.013c-0.107,0.436,0.061,0.876,0.135,1.314c0.035,0.205,0.023,0.394-0.126,0.591
	c-0.219,0.286-0.242,0.6-0.171,0.906c0.06,0.265,0.081,0.525,0.003,0.787c-0.082,0.272,0.048,0.546,0.032,0.814
	c-0.029,0.556,0.205,1.103,0.211,1.642c0.008,0.448-0.004,0.909-0.066,1.357c-0.061,0.43-0.187,0.846,0.021,1.271
	c0.02,0.044,0.035,0.092,0.022,0.132c-0.291,0.779-0.233,1.568-0.276,2.356c-0.008,0.167-0.013,0.335,0.101,0.493
	c0.26,0.371,0.152,0.75,0.034,1.117c-0.11,0.334-0.138,0.652-0.043,0.991c0.12,0.426,0.272,0.861,0.021,1.294
	c-0.014,0.024-0.021,0.055-0.012,0.078c0.19,0.53-0.102,1.064,0.015,1.596c0.027,0.125,0.011,0.248-0.051,0.366
	c-0.064,0.123-0.109,0.253-0.022,0.363c0.364,0.453,0.122,0.915,0.087,1.372c-0.016,0.213-0.024,0.423,0.012,0.633
	c0.054,0.338,0.188,0.666,0.072,1.019c-0.097,0.296,0.251,0.587,0.231,0.9c-0.007,0.139,0.05,0.279,0.004,0.42
	c-0.195,0.599-0.063,1.196,0.08,1.782c0.106,0.421,0.186,0.843,0.108,1.254c-0.09,0.478,0.105,0.948,0.026,1.416
	c-0.126,0.75,0.139,1.501-0.142,2.254c-0.151,0.412-0.119,0.858,0.019,1.287c0.035,0.114,0.047,0.227-0.008,0.339
	c-0.101,0.212-0.105,0.422,0.077,0.617c0.311,0.334,0.057,0.66-0.068,0.976c-0.162,0.409-0.149,0.819-0.16,1.231
	c-0.004,0.109,0.034,0.212,0.115,0.308c0.152,0.18,0.206,0.36,0.104,0.562c-0.089,0.173-0.01,0.35,0.126,0.512
	c0.193,0.229,0.236,0.476,0.036,0.688c-0.456,0.482-0.353,1.006-0.364,1.512c-0.017,0.602,0.033,1.207,0.116,1.812
	c0.087,0.638,0.022,1.298-0.082,1.946c-0.044,0.272-0.012,0.526,0.21,0.768c0.191,0.207,0.199,0.398-0.062,0.59
	c-0.402,0.294-0.104,0.612-0.067,0.919c0.025,0.192,0.064,0.379-0.011,0.573c-0.044,0.117-0.055,0.252-0.001,0.366
	c0.152,0.319,0.136,0.624-0.098,0.929c-0.101,0.131-0.038,0.256,0.095,0.375c0.212,0.187,0.271,0.39,0.152,0.604
	c-0.116,0.208-0.122,0.417,0.001,0.624c0.231,0.393,0.035,0.789-0.015,1.175c-0.05,0.376,0.058,0.755-0.068,1.124
	c-0.009,0.027,0.009,0.056-0.004,0.08c-0.468,0.889,0.065,1.768,0.086,2.649c0.011,0.403,0.098,0.814-0.121,1.225
	c-0.173,0.326-0.039,0.681-0.004,1.021c0.047,0.464,0.122,0.932-0.059,1.388c-0.143,0.364,0.295,0.525,0.654,0.725
	c0.295,0.163,0.612,0.14,0.942,0.044c0.252-0.072,0.506-0.064,0.763-0.007c1.051,0.232,2.143,0.4,3.211,0.595
	c0.789,0.146,1.704,0.147,2.573,0.1c0.717-0.042,1.417,0.006,2.092,0.142c0.287,0.061,0.551,0.086,0.855,0.046
	c0.377-0.048,0.772-0.046,1.152,0.012c0.556,0.08,1.123,0.121,1.691,0.164c0.202,0.016,0.407,0.017,0.594-0.034
	c0.985-0.259,2.026-0.226,3.054-0.159c0.789,0.053,1.528-0.074,2.288-0.13c0.652-0.048,1.287-0.184,1.966-0.118
	c0.145,0.013,0.312-0.012,0.453-0.039c0.182-0.038,0.368-0.056,0.548-0.032c0.897,0.109,1.792,0.134,2.687,0
	c0.015-0.001,0.034-0.006,0.047-0.001c1.168,0.238,2.359-0.091,3.574,0.069c0.756,0.102,1.609,0.151,2.456,0.106
	c1.009-0.052,2.038,0.022,3.058,0.059c0.545,0.02,1.08,0.054,1.598-0.078c0.262-0.067,0.549-0.098,0.821-0.058
	c0.636,0.09,1.294,0.034,1.936,0.102c0.314,0.034,0.646,0.028,0.969-0.023c0.317-0.051,0.651-0.04,0.971-0.017
	c1.243,0.09,2.468-0.01,3.694-0.105c0.06-0.004,0.128-0.016,0.186-0.004c0.855,0.142,1.744,0.023,2.608,0.1
	c0.383,0.032,0.735-0.062,1.106-0.046c1.047,0.042,2.099-0.016,3.147,0.048c0.305,0.016,0.615,0.011,0.923-0.034
	c0.239-0.035,0.489-0.037,0.731,0.02c0.584,0.141,1.201,0.12,1.821,0.137c0.816,0.024,1.543,0.225,2.197,0.507
	c0.916,0.397,1.489,0.309,1.914-0.29c0.114-0.161,0.309-0.261,0.616-0.279c0.177-0.012,0.346,0.006,0.458,0.094
	c0.118,0.094,0.01,0.168-0.087,0.235c-0.076,0.057-0.194,0.116-0.077,0.183c0.143,0.081,0.256-0.003,0.351-0.057
	c0.428-0.237,0.952-0.317,1.533-0.307c0.409,0.008,0.798-0.022,1.159-0.15c0.265-0.093,0.572-0.087,0.853-0.021
	c0.46,0.107,0.93,0.129,1.415,0.111c0.166-0.008,0.353-0.004,0.505,0.03c0.504,0.111,0.982,0.154,1.439-0.065
	c0.074-0.036,0.21-0.052,0.309-0.044c1.041,0.08,2.054-0.103,3.088-0.122c0.876-0.017,1.737,0.116,2.59,0.039
	c0.823-0.072,1.634,0.023,2.426-0.017c0.779-0.04,1.514-0.017,2.285,0.015c0.798,0.031,1.585,0.143,2.42,0.094
	c1.021-0.058,2.066,0.036,3.101,0.068c0.496,0.015,0.991,0.038,1.463-0.086c0.259-0.069,0.547-0.102,0.818-0.062
	c0.64,0.092,1.293,0.036,1.937,0.104c0.315,0.032,0.647,0.028,0.967-0.023c0.336-0.054,0.686-0.04,1.021-0.017
	c1.228,0.085,2.437-0.008,3.647-0.105c0.062-0.006,0.129-0.017,0.187-0.006c0.858,0.136,1.745,0.028,2.608,0.098
	c0.386,0.031,0.734-0.058,1.107-0.044c1.047,0.034,2.099-0.014,3.147,0.046c0.306,0.019,0.614,0.014,0.924-0.03
	c0.238-0.035,0.49-0.04,0.732,0.017c0.585,0.142,1.205,0.117,1.822,0.138c0.835,0.025,1.575,0.228,2.246,0.511
	c0.869,0.365,1.436,0.271,1.862-0.302c0.118-0.159,0.316-0.257,0.623-0.276c0.197-0.011,0.381,0.008,0.493,0.108
	c0.106,0.091,0.009,0.166-0.08,0.24c-0.059,0.046-0.194,0.096-0.06,0.151c0.109,0.046,0.206-0.015,0.276-0.059
	c0.426-0.247,0.965-0.301,1.539-0.299c0.408,0.002,0.796-0.028,1.161-0.148c0.316-0.104,0.666-0.077,0.993-0.005
	c0.371,0.078,0.749,0.107,1.144,0.074c0.062-0.006,0.133-0.018,0.184-0.005c1.034,0.27,1.953-0.125,2.933-0.161
	c0.494-0.021,0.891-0.111,1.194-0.342c0.164-0.126,0.398-0.222,0.574-0.345c0.238-0.166,0.5-0.206,0.893-0.182
	c0.979,0.063,1.97,0.125,2.958,0c0.351-0.045,0.706-0.001,1.053-0.002c0.605-0.004,1.186,0.042,1.763,0.123
	c0.156,0.022,0.354,0.006,0.504-0.028c0.996-0.238,2.023-0.178,3.055-0.128c0.481,0.023,0.962-0.02,1.438-0.057
	c0.344-0.028,0.502-0.169,0.444-0.365c-0.404-1.33-0.136-2.66-0.009-3.989c0.038-0.412,0.054-0.826,0.118-1.237
	c0.094-0.584,0.103-1.173,0.265-1.756c0.106-0.375-0.024-0.771,0.026-1.156c0.125-0.966-0.322-1.902-0.404-2.855
	c-0.04-0.48,0.004-0.965,0.052-1.445c0.062-0.605,0.157-1.207,0.259-1.809c0.237-1.38-0.002-2.761-0.039-4.138
	c-0.027-0.979-0.289-1.957-0.392-2.937c-0.046-0.44-0.078-0.883-0.018-1.317c0.104-0.71,0.021-1.422,0.222-2.132
	c0.115-0.393,0.041-0.808-0.014-1.209c-0.063-0.504-0.053-1.002,0.092-1.497c0.186-0.637,0.237-1.269-0.002-1.91
	c-0.169-0.453-0.042-0.923,0.098-1.363c0.245-0.773,0.047-1.522-0.073-2.282c-0.122-0.769-0.26-1.537,0.028-2.304
	c0.235-0.628,0.229-1.273,0.405-1.903c0.042-0.156,0.12-0.308,0.173-0.461c0.095-0.285-0.001-0.556-0.134-0.831
	c-0.287-0.595-0.158-1.205-0.176-1.811c-0.014-0.396,0.035-0.79,0.192-1.178c0.045-0.112,0.096-0.228,0.375-0.22
	c0.108,0.004,0.162-0.034,0.188-0.093c0.138-0.331,0.409-0.642,0.374-0.998c-0.045-0.456,0.219-0.899,0.253-1.354
	C119.681,58.686,119.673,58.531,119.206,58.438z M-11.957,99.312c-0.246-0.015-0.392-0.146-0.366-0.29
	c0.02-0.105,0.083-0.227,0.356-0.235c0.238,0.048,0.302,0.171,0.286,0.292C-11.695,99.172-11.737,99.322-11.957,99.312z
	 M-11.958,76.616c-0.258,0.017-0.3-0.088-0.297-0.202c0.003-0.168,0.089-0.344,0.38-0.371c0.251-0.022,0.267,0.153,0.31,0.265
	C-11.594,76.457-11.645,76.598-11.958,76.616z M-10.888,49.061c-0.1,0.081-0.201,0.161-0.405,0.145
	c-0.188-0.014-0.23-0.112-0.276-0.191c-0.04-0.063-0.057-0.147-0.017-0.206c0.104-0.15,0.004-0.423,0.411-0.405
	c0.354,0.014,0.315,0.262,0.361,0.41C-10.826,48.91-10.801,48.99-10.888,49.061z"/>
<text transform="matrix(1 0 0 1 6.064 32.2397)" fill="#E1D9C7" font-family="'Courtney'" font-size="31.3952">Real</text>
<text transform="matrix(1 0 0 1 6.0518 57.6387)" fill="#E1D9C7" font-family="'Courtney'" font-size="30.8779">Food</text>
<text transform="matrix(1 0 0 1 5.1978 88.459)" fill="#E1D9C7" font-family="'Courtney'" font-size="39.9314">BoX</text>
<image display="none" overflow="visible" opacity="0.2" width="163" height="131" xlink:href="../../../../../../Desktop/Screen Shot 2014-10-30 at 13.13.13.png"  transform="matrix(1 0 0 1 -29.9971 -13.7764)">
</image>
</svg>
